<?xml version="1.0" encoding="UTF-8" standalone="no"?>
<svg width="57px" height="52px" viewBox="0 0 57 52" version="1.1" xmlns="http://www.w3.org/2000/svg" xmlns:xlink="http://www.w3.org/1999/xlink" xmlns:sketch="http://www.bohemiancoding.com/sketch/ns">
    <!-- Generator: Sketch 3.0.2 (7799) - http://www.bohemiancoding.com/sketch -->
    <title>camera-icon</title>
    <description>Created with Sketch.</description>
    <defs></defs>
    <g id="Sections" stroke="none" stroke-width="1" fill="none" fill-rule="evenodd" sketch:type="MSPage">
        <g id="Index" sketch:type="MSArtboardGroup" transform="translate(-570.000000, -221.000000)" fill="#6D6B64">
            <g id="camera-icon" sketch:type="MSLayerGroup" transform="translate(570.000000, 214.000000)">
                <path d="M20.3323841,44.6160501 L20.3323841,38.981697 L15.4056413,38.8994547 L15.4056413,37.2515903 L5.6925527,37.2515903 L5.6925527,35.9500491 L0,35.9500484 L0,34.3655641 L24.5352956,34.3655642 L24.5352956,8.2192989 L26.2483307,7 L40.1787882,8.2192989 L40.3384615,36.9150759 L35.7850396,37.2515903 L35.7850396,38.981697 L21.6782025,38.981697 L21.6782025,43.2137809 L34.6898152,43.1670008 L34.6952769,44.637931 L20.3323841,44.6160501 Z M12.1587738,10.2186076 L12.1587738,8.01724138 C17.2085199,12.8814086 25.4307692,9.94733897 25.4307692,9.94733897 C25.4307692,9.94733897 25.2446192,31.3922514 25.4307692,31.3922514 C19.8527595,28.7471895 12.1587738,32.4310345 12.1587738,32.4310345 L12.1587738,31.2174957 L12.4198176,29.1467046 L12.4198176,11.9791023 L12.1587738,10.2186076 Z M12.1340285,11.542001 L10.1194002,10.1290447 L4.38461538,10.1290447 L4.38461538,30.5650119 L10.1194002,30.5650121 L12.1340285,29.0747759 L12.1340285,11.542001 Z M39.4615385,9.88600605 L39.4615385,34.4655172 L27.1846154,34.4655172 L27.1846154,9.03448276 L39.4615385,9.88600605 Z M25.7257888,58.5089794 L25.7339243,45.6291703 L29.3611873,45.6245012 C29.3611873,45.6245012 29.4267021,54.5737121 29.4262714,58.4530303 C29.4262576,58.5772291 25.7257888,58.5089794 25.7257888,58.5089794 Z" id="top" sketch:type="MSShapeGroup"></path>
                <path d="M45.9810532,34.3755868 C45.7125673,34.4349437 45.4390602,34.4655172 45.1615385,34.4655172 C41.5292041,34.4655172 38.5846154,29.2280207 38.5846154,22.7672414 C38.5846154,16.306462 41.5292041,11.0689655 45.1615385,11.0689655 C45.4390602,11.0689655 45.7125673,11.0995391 45.9810532,11.1588959 C43.688915,13.1459828 42.0923077,17.596131 42.0923077,22.7672414 C42.0923077,27.9383518 43.688915,32.3884999 45.9810532,34.3755868 L45.9810532,34.3755868 Z M49.9846154,36.5 C53.8591053,36.5 57,30.5793518 57,23.2758621 C57,15.9723724 53.8591053,10.0517241 49.9846154,10.0517241 C46.1101254,10.0517241 42.9692308,15.9723724 42.9692308,23.2758621 C42.9692308,30.5793518 46.1101254,36.5 49.9846154,36.5 Z M50.8615385,32.4310345 C53.2830947,32.4310345 55.2461538,28.3321242 55.2461538,23.2758621 C55.2461538,18.2196 53.2830947,14.1206897 50.8615385,14.1206897 C48.4399823,14.1206897 46.4769231,18.2196 46.4769231,23.2758621 C46.4769231,28.3321242 48.4399823,32.4310345 50.8615385,32.4310345 Z M35.0169032,28.4277107 C35.8757725,28.4277107 37.2292421,28.6697611 38.5846154,30.3965517 C37.2292421,25.6836513 37.4494275,23.8256719 37.4494275,22.5413071 C37.4494275,21.61061 37.5876526,17.9815616 38.5846154,15.137931 C37.2085674,16.6549036 36.0302286,16.6549036 35.0169032,16.6549036 C33.5971175,16.6549036 32.4461538,19.2903362 32.4461538,22.5413071 C32.4461538,25.792278 33.5971175,28.4277107 35.0169032,28.4277107 Z M34.2,26.1813116 C34.141226,26.2766522 34.0793174,26.3275862 34.0153846,26.3275862 C33.6330336,26.3275862 33.3230769,24.5058483 33.3230769,22.2586207 C33.3230769,20.0113931 33.6330336,18.1896552 34.0153846,18.1896552 C34.0793174,18.1896552 34.141226,18.2405892 34.2,18.3359298 C33.907275,18.8107754 33.6923077,20.387151 33.6923077,22.2586207 C33.6923077,24.1300904 33.907275,25.7064659 34.2,26.1813116 Z" id="lens" sketch:type="MSShapeGroup"></path>
                <path d="M23,12.9811491 L23.0021985,0.00470416709 L23.9824114,0 C23.9824114,0 24.0001158,9.01635596 23.9999994,12.9247802 C23.9999957,13.0499109 23,12.9811491 23,12.9811491 Z" id="Path-3" opacity="0" sketch:type="MSShapeGroup"></path>
            </g>
        </g>
    </g>
</svg>