<?xml version="1.0" encoding="UTF-8" standalone="no"?>
<svg width="57px" height="53px" viewBox="0 0 57 53" version="1.1" xmlns="http://www.w3.org/2000/svg" xmlns:xlink="http://www.w3.org/1999/xlink" xmlns:sketch="http://www.bohemiancoding.com/sketch/ns">
    <!-- Generator: Sketch 3.2.2 (9983) - http://www.bohemiancoding.com/sketch -->
    <title>camera-icon</title>
    <desc>Created with Sketch.</desc>
    <defs></defs>
    <g id="assets" stroke="none" stroke-width="1" fill="none" fill-rule="evenodd" sketch:type="MSPage">
        <g id="Desktop-HD" sketch:type="MSArtboardGroup" transform="translate(-1202.000000, -685.000000)" fill="#CDCDCD">
            <g id="camera-icon" sketch:type="MSLayerGroup" transform="translate(1202.000000, 685.500000)">
                <g id="Sections" sketch:type="MSShapeGroup">
                    <g id="Index">
                        <g id="_camera-icon">
                            <path d="M20.3323841,37.6160501 L20.3323841,31.981697 L15.4056413,31.8994547 L15.4056413,30.2515903 L5.6925527,30.2515903 L5.6925527,28.9500491 L0,28.9500484 L0,27.3655641 L24.5352956,27.3655642 L24.5352956,1.2192989 L26.2483307,0 L40.1787882,1.2192989 L40.3384615,29.9150759 L35.7850396,30.2515903 L35.7850396,31.981697 L21.6782025,31.981697 L21.6782025,36.2137809 L34.6898152,36.1670008 L34.6952769,37.637931 L20.3323841,37.6160501 L20.3323841,37.6160501 Z M12.1587738,3.2186076 L12.1587738,1.01724138 C17.2085199,5.88140863 25.4307692,2.94733897 25.4307692,2.94733897 C25.4307692,2.94733897 25.2446192,24.3922514 25.4307692,24.3922514 C19.8527595,21.7471895 12.1587738,25.4310345 12.1587738,25.4310345 L12.1587738,24.2174957 L12.4198176,22.1467046 L12.4198176,4.97910232 L12.1587738,3.2186076 L12.1587738,3.2186076 Z M12.1340285,4.54200099 L10.1194002,3.12904471 L4.38461538,3.12904471 L4.38461538,23.5650119 L10.1194002,23.5650121 L12.1340285,22.0747759 L12.1340285,4.54200099 L12.1340285,4.54200099 Z M39.4615385,2.88600605 L39.4615385,27.4655172 L27.1846154,27.4655172 L27.1846154,2.03448276 L39.4615385,2.88600605 L39.4615385,2.88600605 Z M25.7257888,51.5089794 L25.7339243,38.6291703 L29.3611873,38.6245012 C29.3611873,38.6245012 29.4267021,47.5737121 29.4262714,51.4530303 C29.4262576,51.5772291 25.7257888,51.5089794 25.7257888,51.5089794 L25.7257888,51.5089794 Z" id="top"></path>
                            <path d="M45.9810532,27.3755868 C45.7125673,27.4349437 45.4390602,27.4655172 45.1615385,27.4655172 C41.5292041,27.4655172 38.5846154,22.2280207 38.5846154,15.7672414 C38.5846154,9.30646202 41.5292041,4.06896552 45.1615385,4.06896552 C45.4390602,4.06896552 45.7125673,4.09953909 45.9810532,4.15889591 C43.688915,6.14598282 42.0923077,10.596131 42.0923077,15.7672414 C42.0923077,20.9383518 43.688915,25.3884999 45.9810532,27.3755868 L45.9810532,27.3755868 L45.9810532,27.3755868 Z M49.9846154,29.5 C53.8591053,29.5 57,23.5793518 57,16.2758621 C57,8.97237236 53.8591053,3.05172414 49.9846154,3.05172414 C46.1101254,3.05172414 42.9692308,8.97237236 42.9692308,16.2758621 C42.9692308,23.5793518 46.1101254,29.5 49.9846154,29.5 L49.9846154,29.5 Z M50.8615385,25.4310345 C53.2830947,25.4310345 55.2461538,21.3321242 55.2461538,16.2758621 C55.2461538,11.2196 53.2830947,7.12068966 50.8615385,7.12068966 C48.4399823,7.12068966 46.4769231,11.2196 46.4769231,16.2758621 C46.4769231,21.3321242 48.4399823,25.4310345 50.8615385,25.4310345 L50.8615385,25.4310345 Z M35.0169032,21.4277107 C35.8757725,21.4277107 37.2292421,21.6697611 38.5846154,23.3965517 C37.2292421,18.6836513 37.4494275,16.8256719 37.4494275,15.5413071 C37.4494275,14.61061 37.5876526,10.9815616 38.5846154,8.13793103 C37.2085674,9.65490355 36.0302286,9.65490355 35.0169032,9.65490355 C33.5971175,9.65490355 32.4461538,12.2903362 32.4461538,15.5413071 C32.4461538,18.792278 33.5971175,21.4277107 35.0169032,21.4277107 L35.0169032,21.4277107 Z M34.2,19.1813116 C34.141226,19.2766522 34.0793174,19.3275862 34.0153846,19.3275862 C33.6330336,19.3275862 33.3230769,17.5058483 33.3230769,15.2586207 C33.3230769,13.0113931 33.6330336,11.1896552 34.0153846,11.1896552 C34.0793174,11.1896552 34.141226,11.2405892 34.2,11.3359298 C33.907275,11.8107754 33.6923077,13.387151 33.6923077,15.2586207 C33.6923077,17.1300904 33.907275,18.7064659 34.2,19.1813116 L34.2,19.1813116 Z" id="lens"></path>
                        </g>
                    </g>
                </g>
            </g>
        </g>
    </g>
</svg>