<?xml version="1.0" encoding="UTF-8" standalone="no"?>
<svg width="58px" height="63px" viewBox="0 0 58 63" version="1.1" xmlns="http://www.w3.org/2000/svg" xmlns:xlink="http://www.w3.org/1999/xlink" xmlns:sketch="http://www.bohemiancoding.com/sketch/ns">
    <!-- Generator: Sketch 3.2.2 (9983) - http://www.bohemiancoding.com/sketch -->
    <title>compass-icon</title>
    <desc>Created with Sketch.</desc>
    <defs></defs>
    <g id="assets" stroke="none" stroke-width="1" fill="none" fill-rule="evenodd" sketch:type="MSPage">
        <g id="Desktop-HD" sketch:type="MSArtboardGroup" transform="translate(-1323.000000, -664.000000)" fill="#CDCDCD">
            <g id="compass-icon" sketch:type="MSLayerGroup" transform="translate(1323.500000, 664.000000)">
                <g id="Sections" sketch:type="MSShapeGroup">
                    <g id="Index">
                        <g id="_compass-icon">
                            <path d="M14.7727844,58.9747899 L17.8616684,58.9747899 L21.8190096,36.5549611 C21.8190096,36.5549611 23.0244798,37.6204275 24.5922867,38.3323414 C26.1600936,39.0442553 28.5,39.1152351 28.5,39.1152351 L28.5,36.5549611 C28.5,36.5549611 24.6028258,36.9748768 22.3168799,34.6579347 C20.030934,32.3409926 20.3591238,27.0657895 20.3591238,27.0657895 L14.7727844,58.9747899 L14.7727844,58.9747899 Z M20.89362,58.9747899 L23.8961046,58.9747899 L26.4216757,45.0548398 C26.4216757,45.0548398 27.5677051,45.6788465 28.5,45.6788465 L28.5,43.0537482 C28.5,43.0537482 26.7795859,42.7557869 26.7795859,41.169225 C26.7795859,40.8424101 24.0920977,41.169225 24.0920977,41.169225 L20.89362,58.9747899 L20.89362,58.9747899 Z M33.8741656,58.9747899 L36.8766503,58.9747899 L33.6781726,41.169225 C33.6781726,41.169225 30.9906843,40.8424101 30.9906843,41.169225 C30.9906843,42.7557869 29.2702703,43.0537482 29.2702703,43.0537482 L29.2702703,45.6788465 C30.2025652,45.6788465 31.3485945,45.0548398 31.3485945,45.0548398 L33.8741656,58.9747899 L33.8741656,58.9747899 Z M39.9086019,58.9747899 L42.9974859,58.9747899 L37.4111465,27.0657895 C37.4111465,27.0657895 37.7393362,32.3409926 35.4533903,34.6579347 C33.1674444,36.9748768 29.2702703,36.5549611 29.2702703,36.5549611 L29.2702703,39.1152351 C29.2702703,39.1152351 31.6101767,39.0442553 33.1779836,38.3323414 C34.7457905,37.6204275 35.9512607,36.5549611 35.9512607,36.5549611 L39.9086019,58.9747899 L39.9086019,58.9747899 Z" id="Rectangle-52"></path>
                            <g id="compass-head">
                                <path d="M23.2374527,35.7809378 C22.6762476,36.3685079 20.3499222,38.769187 20.0082961,38.5527792 C16.2831703,36.1930463 13.8648649,32.3861855 13.8648649,28.0917213 C13.8648649,20.9303989 20.5896689,15.125 28.8851351,15.125 C37.1806013,15.125 43.9054054,20.9303989 43.9054054,28.0917213 C43.9054054,30.4897727 43.151338,32.7357814 41.8367349,34.662675 C40.6396611,36.4172988 38.9777983,37.9073164 36.9972736,39.0065789 C36.997273,39.0065793 35.3276573,37.2187055 34.4265449,36.2537676 C32.8947643,36.9938743 31.1379658,37.4144737 29.2702703,37.4144737 C27.0353607,37.4144737 24.9592428,36.8122243 23.2374527,35.7809378 L23.2374527,35.7809378 L23.2374527,35.7809378 Z M28.8851351,35.8223684 C33.3519246,35.8223684 36.972973,32.6147243 36.972973,28.6578947 C36.972973,24.7010652 33.3519246,21.4934211 28.8851351,21.4934211 C24.4183456,21.4934211 20.7972973,24.7010652 20.7972973,28.6578947 C20.7972973,32.6147243 24.4183456,35.8223684 28.8851351,35.8223684 L28.8851351,35.8223684 Z" id="circle"></path>
                                <path d="M25.0337838,11.8712921 L25.0337838,1.39532389 C25.0337838,1.39532389 25.5992093,-9.20321504e-16 28.8851351,0 C32.171061,9.20321504e-16 32.7364865,1.39532389 32.7364865,1.39532389 L32.7364865,11.8712921 L30.5607366,16.951787 C30.5607366,16.951787 30.4764106,18.3092105 28.8851351,18.3092105 C27.2938596,18.3092105 27.0418109,16.951787 27.0418109,16.951787 L25.0337838,11.8712921 L25.0337838,11.8712921 Z M27.7297297,3.18421053 L27.7297297,11.1447368 L30.0405405,11.1447368 L30.0405405,3.18421053 L27.7297297,3.18421053 L27.7297297,3.18421053 Z" id="top"></path>
                                <path d="M28.5,57.0705328 C28.4763162,57.0705841 28.452624,57.0706098 28.4289234,57.0706098 C18.7816008,57.0706098 10.5235329,52.8192048 7.12199682,46.7946287 C7.00870423,46.7193946 6.89649726,46.6440831 6.78539536,46.5687248 C2.61857129,43.7424456 0,40.5986842 0,40.5986842 C0,43.4130649 0.964090315,46.2509675 2.65798166,48.9007482 L2.83765517,48.7847985 L4.7470382,47.5526052 L5.07449469,47.3412858 L5.46744248,48.0456838 L5.13998599,48.2570032 L3.23060296,49.4891965 L3.10446306,49.5705991 C3.5995462,50.28389 4.14739583,50.9818648 4.74326448,51.660235 L4.74326448,51.660235 L6.24189256,50.451337 L6.54739384,50.2048983 L7.00564577,50.8620681 L6.70014448,51.1085067 L5.28104536,52.2532511 C10.5927981,57.9293987 19.2863353,62.0921053 28.4289234,62.0921053 C28.4526228,62.0921053 28.476315,62.0920833 28.5,62.0920393 L28.5,57.0705346 L28.5,57.0705328 L28.5,57.0705328 Z M28.5,57.0705328 C28.5236838,57.0705841 28.547376,57.0706098 28.5710766,57.0706098 C38.2183992,57.0706098 46.4764671,52.8192048 49.8780032,46.7946287 C49.9912958,46.7193946 50.1035027,46.6440831 50.2146046,46.5687248 C54.3814287,43.7424456 57,40.5986842 57,40.5986842 C57,43.4130649 56.0359097,46.2509675 54.3420183,48.9007482 L54.1623448,48.7847985 L52.2529618,47.5526052 L51.9255053,47.3412858 L51.5325575,48.0456838 L51.860014,48.2570032 L53.769397,49.4891965 L53.8955369,49.5705991 C53.4004538,50.28389 52.8526042,50.9818648 52.2567355,51.660235 L52.2567355,51.660235 L50.7581074,50.451337 L50.4526062,50.2048983 L49.9943542,50.8620681 L50.2998555,51.1085067 L51.7189546,52.2532511 C46.4072019,57.9293987 37.7136647,62.0921053 28.5710766,62.0921053 C28.5473772,62.0921053 28.523685,62.0920833 28.5,62.0920393 L28.5,57.0705346 L28.5,57.0705328 L28.5,57.0705328 Z" id="Oval-5"></path>
                            </g>
                        </g>
                    </g>
                </g>
            </g>
        </g>
    </g>
</svg>