<?xml version="1.0" encoding="UTF-8" standalone="no"?>
<svg width="80px" height="160px" viewBox="0 0 80 160" version="1.1" xmlns="http://www.w3.org/2000/svg" xmlns:xlink="http://www.w3.org/1999/xlink" xmlns:sketch="http://www.bohemiancoding.com/sketch/ns">
    <!-- Generator: Sketch 3.2.2 (9983) - http://www.bohemiancoding.com/sketch -->
    <title>compass</title>
    <desc>Created with Sketch.</desc>
    <defs>
        <path d="M10.5688568,0 L26.1041624,85.8631925 L24.3799025,88.1722925 L28,110.278131 C26.3925196,111.633785 26.1783896,118 26.1783896,118 C26.1783896,118 23.3933308,112.31418 21.4540515,111.292652 L17.4155452,89.2045733 L14.8416063,87.359903 L2.69817535,22.5978153 C2.69817535,22.5978153 1.21034783,23.3816915 0,23.3816915 L0,20.0840473 C0,20.0840473 2.23352,19.7097488 2.23352,17.7167123 C2.23352,17.3061681 5.72253985,17.7167123 5.72253985,17.7167123 L18.2151465,85.0092411 C18.2151465,85.0092411 18.1576802,85.6925956 20.2382307,85.3509184 C22.3187811,85.0092411 21.8935311,84.3906459 21.8935311,84.3906459 L8.67356652,11.9202817 C8.67356652,11.9202817 7.10857009,13.2587188 5.07317169,14.1530239 C3.03777328,15.0473289 0,15.1364936 0,15.1364936 L0,11.9202817 C0,11.9202817 5.05948925,12.4477792 8.02720849,9.53724027 C10.9949277,6.62670139 10.5688568,0 10.5688568,0 Z M23.8113764,107.448005 C23.8113764,107.448005 25.0606478,112.160177 25.2584832,112.130686 C25.4671592,112.099579 24.8052565,107.261148 24.8052565,107.261148 L22.3620106,93.9544415 L21.2255062,94.1295109 L23.8113764,107.448005 Z M18.8681889,89.3251806 L19.1810578,91.3005573 L23.1318111,90.6748194 L22.8189422,88.6994427 L18.8681889,89.3251806 Z" id="path-1"></path>
    </defs>
    <g id="assets" stroke="none" stroke-width="1" fill="none" fill-rule="evenodd" sketch:type="MSPage">
        <g id="Group-7" sketch:type="MSLayerGroup">
            <g id="compass">
                <g id="compass-right" transform="translate(41.000000, 38.000000)">
                    <g id="right">
                        <use fill="#FFFFFF" fill-rule="evenodd" sketch:type="MSShapeGroup" xlink:href="#path-1"></use>
                        <use fill="none" xlink:href="#path-1"></use>
                    </g>
                </g>
            </g>
        </g>
    </g>
</svg>