<?xml version="1.0" encoding="UTF-8" standalone="no"?>
<svg width="35px" height="61px" viewBox="0 0 35 61" version="1.1" xmlns="http://www.w3.org/2000/svg" xmlns:xlink="http://www.w3.org/1999/xlink" xmlns:sketch="http://www.bohemiancoding.com/sketch/ns">
    <!-- Generator: Sketch 3.2.2 (9983) - http://www.bohemiancoding.com/sketch -->
    <title>guitar-icon</title>
    <desc>Created with Sketch.</desc>
    <defs></defs>
    <g id="assets" stroke="none" stroke-width="1" fill="none" fill-rule="evenodd" sketch:type="MSPage">
        <g id="Desktop-HD" sketch:type="MSArtboardGroup" transform="translate(-1282.000000, -682.000000)" fill="#CDCDCD">
            <g id="guitar-icon" sketch:type="MSLayerGroup" transform="translate(1282.000000, 682.000000)">
                <g id="Sections" sketch:type="MSShapeGroup">
                    <g id="Index">
                        <g id="_guitar-icon">
                            <path d="M27.8125,30.0431155 C28.1513691,32.5237349 28.6260727,35.2402732 29.2680766,38.2100739 C29.2680766,38.2100739 24.0619499,39.8991417 24.0619495,42.2319383 L18.0296786,42.2386324 L17.714942,42.2419788 L17.4006853,42.2453251 L11.497926,42.245324 C11.497926,42.245324 11.7663821,40.0304464 6.1147889,38.3163197 C6.1147889,38.3163197 6.9690507,35.6407196 7.5121888,31.2801413 L7.5121888,31.2801413 L8.0125,31.2801413 L12.55,31.2801413 L13.375,31.2801413 L13.375,29.4526107 L12.55,29.4526107 L8.0125,29.4526107 L7.7097015,29.4526107 C7.861652,27.7969192 7.957938,25.9557634 7.9504728,23.9700188 L8.0125,23.9700188 L12.55,23.9700188 L13.375,23.9700188 L13.375,22.1424881 L12.55,22.1424881 L8.0125,22.1424881 L7.9143562,22.1424881 C7.8321993,19.8497259 7.6048873,17.3944751 7.1669762,14.8323656 L7.1669762,14.8323656 L12.4044118,14.8323656 L13.375,14.8323656 L13.375,13.004835 L12.4044118,13.004835 L6.8216256,13.004835 C6.40222,10.9810241 5.846856,8.90081468 5.125,6.79016144 C5.125,6.79016144 6.7941593,6.65547181 9.8378921,5.56540602 C12.8816249,4.47492194 17.4313913,0.212120536 17.4313913,0.212120536 C17.4313913,0.212120536 22.0915074,4.43267457 25.1481943,5.49513317 C28.2048812,6.55717348 29.875,6.67638635 29.875,6.67638635 C29.875,6.67638635 28.4984484,8.42972676 27.6837711,13.004835 L26.9875,13.004835 L22.45,13.004835 L21.625,13.004835 L21.625,14.8323656 L22.45,14.8323656 L26.9875,14.8323656 L27.4111321,14.8323656 C27.1671882,16.8289586 27.0374582,19.2465058 27.1262287,22.1424881 L27.1262287,22.1424881 L26.9875,22.1424881 L22.45,22.1424881 L21.625,22.1424881 L21.625,23.9700188 L22.45,23.9700188 L26.9875,23.9700188 L27.2084248,23.9700188 C27.3072714,25.6499032 27.4768291,27.4743643 27.7338053,29.4526107 L26.9875,29.4526107 L22.45,29.4526107 L21.625,29.4526107 L21.625,31.2801413 L22.45,31.2801413 L26.9875,31.2801413 L27.8125,31.2801413 L27.8125,30.0431155 L27.8125,30.0431155 Z" id="Stroke-2"></path>
                            <path d="M11.5807626,60.3814793 L17.9905626,60.3814793 L17.8971068,43.4177945 L18.3023109,60.3814793 L21.3544875,60.3814793 L20.8915993,43.4177945 L21.6696971,60.3814793 L24.383992,60.3814793 L23.5528158,43.4177945 L12.0829697,43.4177945 L11.5807626,60.3814793 L11.5807626,60.3814793 Z" id="Rectangle-51"></path>
                            <path d="M2.7407496,16.5664888 C3.2908865,16.4190801 3.4192068,15.1140816 3.027361,13.6516931 C2.6355152,12.1893047 1.8718873,11.123303 1.3217504,11.2707117 C0.7716135,11.4181205 0.6432932,12.723119 1.035139,14.1855074 C1.4269848,15.6478959 2.1906127,16.7138976 2.7407496,16.5664888 L2.7407496,16.5664888 Z M32.2592504,16.5664888 C31.7091135,16.4190801 31.5807932,15.1140816 31.972639,13.6516931 C32.3644848,12.1893047 33.1281127,11.123303 33.6782496,11.2707117 C34.2283865,11.4181205 34.3567068,12.723119 33.964861,14.1855074 C33.5730152,15.6478959 32.8093873,16.7138976 32.2592504,16.5664888 L32.2592504,16.5664888 Z M4.8032496,27.7184874 C5.3533865,27.8658962 5.4817068,29.1708946 5.089861,30.6332831 C4.6980152,32.0956716 3.9343873,33.1616733 3.3842504,33.0142645 C2.8341135,32.8668558 2.7057932,31.5618573 3.097639,30.0994688 C3.4894848,28.6370804 4.2531127,27.5710787 4.8032496,27.7184874 L4.8032496,27.7184874 Z M30.1967504,27.7184874 C29.6466135,27.8658962 29.5182932,29.1708946 29.910139,30.6332831 C30.3019848,32.0956716 31.0656127,33.1616733 31.6157496,33.0142645 C32.1658865,32.8668558 32.2942068,31.5618573 31.902361,30.0994688 C31.5105152,28.6370804 30.7468873,27.5710787 30.1967504,27.7184874 L30.1967504,27.7184874 Z M4.09375,20.3149575 C4.6632936,20.3149575 5.125,21.5422775 5.125,23.0562534 C5.125,24.5702294 4.6632936,25.7975494 4.09375,25.7975494 C3.5242064,25.7975494 3.0625,24.5702294 3.0625,23.0562534 C3.0625,21.5422775 3.5242064,20.3149575 4.09375,20.3149575 L4.09375,20.3149575 Z M30.90625,20.3149575 C30.3367064,20.3149575 29.875,21.5422775 29.875,23.0562534 C29.875,24.5702294 30.3367064,25.7975494 30.90625,25.7975494 C31.4757936,25.7975494 31.9375,24.5702294 31.9375,23.0562534 C31.9375,21.5422775 31.4757936,20.3149575 30.90625,20.3149575 L30.90625,20.3149575 Z" id="Oval-9"></path>
                        </g>
                    </g>
                </g>
            </g>
        </g>
    </g>
</svg>