<?xml version="1.0" encoding="UTF-8" standalone="no"?>
<svg width="80px" height="160px" viewBox="0 0 80 160" version="1.1" xmlns="http://www.w3.org/2000/svg" xmlns:xlink="http://www.w3.org/1999/xlink" xmlns:sketch="http://www.bohemiancoding.com/sketch/ns">
    <!-- Generator: Sketch 3.2.2 (9983) - http://www.bohemiancoding.com/sketch -->
    <title>guitar</title>
    <desc>Created with Sketch.</desc>
    <defs></defs>
    <g id="assets" stroke="none" stroke-width="1" fill="none" fill-rule="evenodd" sketch:type="MSPage">
        <g id="Group-7" sketch:type="MSLayerGroup" transform="translate(-82.000000, 0.000000)" fill="#FFFFFF">
            <g id="guitar" transform="translate(82.000000, 0.000000)" sketch:type="MSShapeGroup">
                <path d="M47.9062675,93.6542602 C50.1666554,96.7481555 58.3692711,95.7800733 59.6946193,94.5537796 C61.0707524,93.2804965 63.1799337,93.5856903 64.077894,95.2563795 C67.0619625,100.808352 62.1518324,105.483407 62.7306373,113.558712 C63.162112,119.578513 69.5361082,126.903381 70.9037772,129.925853 C74.1065459,137.003245 73.4520718,141.757834 70.2103631,146.86137 C66.968009,151.964906 62.7306387,154.064801 62.7306387,154.064801 C62.7306387,154.064801 53.4876382,159.3963 40.8516865,158.976443 L40.5033771,158.956382 L40.1531314,158.972795 C27.5169646,159.399745 18.2709521,154.073514 18.2709521,154.073514 C18.2709521,154.073514 14.0318607,151.975848 10.7867098,146.874339 C7.54155887,141.772626 6.89896219,137.018443 10.0969978,129.939226 C13.2950333,122.860415 18.513866,115.985859 19.3901256,113.558711 C20.6917142,109.953044 20.1291267,109.217686 16.7039048,98.7042312 C16.7039048,98.7042312 14.5015307,92.234335 20.1919472,85.4791302 C23.7131349,81.2988087 30.8557199,80.2171739 35.7896366,80 L35.7896366,82.0825562 C32.0057545,82.1177505 26.9933356,82.8340965 23.3479075,85.833893 C15.5903695,92.217515 21.1333137,102.359749 21.1333137,102.359749 C23.9571609,111.082541 24.4209734,111.692652 23.347908,114.684198 C22.6254955,116.697951 18.3229464,122.401626 15.686398,128.274766 C13.0498496,134.148242 13.5796239,138.092688 16.2550156,142.325471 C18.9304072,146.558086 22.4252306,148.298475 22.4252306,148.298475 C22.4252306,148.298475 30.0478974,152.717537 40.4655007,152.363306 L40.7542528,152.349688 L41.0414087,152.366332 C51.4588346,152.714679 59.0790182,148.291246 59.0790182,148.291246 C59.0790182,148.291246 62.5724227,146.549008 65.2455086,142.314711 C67.9180624,138.080415 68.4576288,134.135633 65.8171783,128.26367 C64.6896344,125.755989 59.4347367,119.6787 59.0790171,114.684199 C58.6018344,107.984288 62.6498806,104.105494 60.1897325,99.4991392 C59.4494294,98.1130036 57.7105623,97.8597907 56.5760404,98.9162068 C55.4415184,99.972623 49.2473822,98.5478744 47.7183849,95.6095909 C47.7183849,95.3424668 47.6951606,94.6247756 47.6583159,93.6542601 L47.9062644,93.6542601 L47.9062675,93.6542602 Z" id="Imported-Layers"></path>
                <path d="M40.5,122.4625 C46.8512746,122.4625 52,117.378134 52,111.10625 C52,104.834366 46.8512746,99.75 40.5,99.75 C34.1487254,99.75 29,104.834366 29,111.10625 C29,117.378134 34.1487254,122.4625 40.5,122.4625 Z M40.5,118.5125 C44.6421356,118.5125 48,115.196609 48,111.10625 C48,107.015891 44.6421356,103.7 40.5,103.7 C36.3578644,103.7 33,107.015891 33,111.10625 C33,115.196609 36.3578644,118.5125 40.5,118.5125 Z" id="Oval-7"></path>
                <path d="M41.5,135.3 L28,135.3 L28,139.430014 C28,139.430014 34.604483,138.955963 38.3022416,142.918069 C38.3022417,143.106062 39.9356394,143.1687 41.0241163,143.189571 L41.0241482,143.2 C41.0241482,143.2 41.2108181,143.2 41.5,143.196771 C41.7891819,143.2 41.9758518,143.2 41.9758518,143.2 L41.9758837,143.189571 C43.0643606,143.1687 44.6977583,143.106062 44.6977584,142.918069 C48.395517,138.955963 55,139.430014 55,139.430014 L55,135.3 L41.5,135.3 Z M42.5,138.2625 C43.3284271,138.2625 44,137.820381 44,137.275 C44,136.729619 43.3284271,136.2875 42.5,136.2875 C41.6715729,136.2875 41,136.729619 41,137.275 C41,137.820381 41.6715729,138.2625 42.5,138.2625 Z M48.5,138.2625 C49.3284271,138.2625 50,137.820381 50,137.275 C50,136.729619 49.3284271,136.2875 48.5,136.2875 C47.6715729,136.2875 47,136.729619 47,137.275 C47,137.820381 47.6715729,138.2625 48.5,138.2625 Z M35.5,138.2625 C36.3284271,138.2625 37,137.820381 37,137.275 C37,136.729619 36.3284271,136.2875 35.5,136.2875 C34.6715729,136.2875 34,136.729619 34,137.275 C34,137.820381 34.6715729,138.2625 35.5,138.2625 Z" id="Path-24"></path>
                <path d="M45,17.1190773 C45.1643002,18.4594716 45.3944595,19.9273439 45.7057341,21.5320656 C45.7057341,21.5320656 43.1815515,22.4447478 43.1815513,23.7052665 L40.2568139,23.7088836 L40.1042143,23.7106918 L39.9518474,23.7125 L37.0899035,23.7124994 C37.0899035,23.7124994 37.220064,22.5156978 34.4798976,21.5894752 C34.4798976,21.5894752 34.8940852,20.1437237 35.1574249,17.7875 L35.1574249,17.7875 L35.4,17.7875 L37.6,17.7875 L38,17.7875 L38,16.8 L37.6,16.8 L35.4,16.8 L35.2531886,16.8 C35.3268616,15.9053527 35.3735457,14.9104904 35.3699262,13.8375 L35.4,13.8375 L37.6,13.8375 L38,13.8375 L38,12.85 L37.6,12.85 L35.4,12.85 L35.3524151,12.85 L35.3524151,12.85 C35.3125815,11.6111137 35.2023696,10.2844272 34.9900491,8.9 L34.9900491,8.9 L37.5294118,8.9 L38,8.9 L38,7.9125 L37.5294118,7.9125 L34.8226064,7.9125 C34.6192582,6.81894062 34.3499908,5.69490651 34,4.55442217 C34,4.55442217 34.8092893,4.48164308 36.2850386,3.89262972 C37.7607878,3.30339033 39.9667352,1 39.9667352,1 C39.9667352,1 42.2261854,3.28056211 43.7082154,3.85465802 C45.1902454,4.42852791 46,4.49294418 46,4.49294418 C46,4.49294418 45.3325811,5.44035575 44.937586,7.9125 L44.6,7.9125 L42.4,7.9125 L42,7.9125 L42,8.9 L42.4,8.9 L44.6,8.9 L44.8053974,8.9 L44.8053974,8.9 C44.6871215,9.97885228 44.6242222,11.2851657 44.6672624,12.85 L44.6672624,12.85 L44.6,12.85 L42.4,12.85 L42,12.85 L42,13.8375 L42.4,13.8375 L44.6,13.8375 L44.7071151,13.8375 C44.7550407,14.7452199 44.8372505,15.7310613 44.961845,16.8 L44.6,16.8 L42.4,16.8 L42,16.8 L42,17.7875 L42.4,17.7875 L44.6,17.7875 L45,17.7875 L45,17.1190773 Z" id="Stroke-2"></path>
                <path d="M40.5,93.825 L35,93.825 L37.1430664,22.725 L43.453125,22.725 L47,93.8249983 L44.2348633,93.825 L45.3094482,93.825 L41.9890747,22.725 L43.9643555,93.825 L42.0708008,93.825 L40.3416748,22.725 L40.7404785,93.825 L40.5,93.825 Z" id="Imported-Layers"></path>
                <path d="M32.8833757,9.83702763 C33.1501088,9.76555672 33.1946955,9.06703714 32.9829629,8.27684048 C32.7712304,7.48664381 32.3833573,6.90400146 32.1166243,6.97547237 C31.8498912,7.04694328 31.8053045,7.74546286 32.0170371,8.53565952 C32.2287696,9.32585619 32.6166427,9.90849854 32.8833757,9.83702763 Z M47.1166243,9.83702763 C46.8498912,9.76555672 46.8053045,9.06703714 47.0170371,8.27684048 C47.2287696,7.48664381 47.6166427,6.90400146 47.8833757,6.97547237 C48.1501088,7.04694328 48.1946955,7.74546286 47.9829629,8.53565952 C47.7712304,9.32585619 47.3833573,9.90849854 47.1166243,9.83702763 Z M33.8833757,15.8629724 C34.1501088,15.9344433 34.1946955,16.6329629 33.9829629,17.4231595 C33.7712304,18.2133562 33.3833573,18.7959985 33.1166243,18.7245276 C32.8498912,18.6530567 32.8053045,17.9545371 33.0170371,17.1643405 C33.2287696,16.3741438 33.6166427,15.7915015 33.8833757,15.8629724 Z M46.1166243,15.8629724 C45.8498912,15.9344433 45.8053045,16.6329629 46.0170371,17.4231595 C46.2287696,18.2133562 46.6166427,18.7959985 46.8833757,18.7245276 C47.1501088,18.6530567 47.1946955,17.9545371 46.9829629,17.1643405 C46.7712304,16.3741438 46.3833573,15.7915015 46.1166243,15.8629724 Z M33.5,11.8625 C33.7761424,11.8625 34,12.5256782 34,13.34375 C34,14.1618218 33.7761424,14.825 33.5,14.825 C33.2238576,14.825 33,14.1618218 33,13.34375 C33,12.5256782 33.2238576,11.8625 33.5,11.8625 Z M46.5,11.8625 C46.2238576,11.8625 46,12.5256782 46,13.34375 C46,14.1618218 46.2238576,14.825 46.5,14.825 C46.7761424,14.825 47,14.1618218 47,13.34375 C47,12.5256782 46.7761424,11.8625 46.5,11.8625 Z" id="Oval-9"></path>
            </g>
        </g>
    </g>
</svg>