<?xml version="1.0" encoding="UTF-8" standalone="no"?>
<svg width="60px" height="60px" viewBox="0 0 60 60" version="1.1" xmlns="http://www.w3.org/2000/svg" xmlns:xlink="http://www.w3.org/1999/xlink" xmlns:sketch="http://www.bohemiancoding.com/sketch/ns">
    <!-- Generator: Sketch 3.2.2 (9983) - http://www.bohemiancoding.com/sketch -->
    <title>instagram-sel</title>
    <desc>Created with Sketch.</desc>
    <defs></defs>
    <g id="assets" stroke="none" stroke-width="1" fill="none" fill-rule="evenodd" sketch:type="MSPage">
        <g id="Desktop-HD" sketch:type="MSArtboardGroup" transform="translate(-1142.000000, -724.000000)" fill="#FF8383">
            <g id="instagram" sketch:type="MSLayerGroup" transform="translate(1142.000000, 653.000000)">
                <path d="M29.5,94 C25.3579205,94 22,97.3580649 22,101.500322 C22,105.642578 25.3579205,109 29.5,109 C33.6420795,109 37,105.642578 37,101.500322 C37,97.3580649 33.6420795,94 29.5,94 L29.5,94 Z M44,98 L40.7097066,98 C41.0203941,99.0590147 41.1888392,100.180439 41.1888392,101.34217 C41.1888392,107.819778 35.9870063,113.071294 29.5711212,113.071294 C23.1546123,113.071294 17.9534033,107.819778 17.9534033,101.34217 C17.9534033,100.180439 18.1212245,99.0590147 18.4325359,98 L15,98 L15,114.452109 C15,115.303742 15.6687893,116 16.4860597,116 L42.5133164,116 C43.3305869,116 44,115.303742 44,114.452109 L44,98 L44,98 Z M38.7736128,86 C37.7970407,86 37,86.8195089 37,87.8212809 L37,92.1793941 C37,93.1804911 37.7970407,94 38.7736128,94 L43.2263872,94 C44.2029593,94 45,93.1804911 45,92.1793941 L45,87.8212809 C45,86.8195089 44.2029593,86 43.2263872,86 L38.7736128,86 L38.7736128,86 Z M15.8777312,82 L44.1229031,82 C46.8059724,82 49,84.252341 49,87.0059255 L49,115.994075 C49,118.747659 46.8059724,121 44.1229031,121 L15.8777312,121 C13.1946619,121 11,118.747659 11,115.994075 L11,87.0059255 C11,84.252341 13.1946619,82 15.8777312,82 L15.8777312,82 Z" id="Fill-82" sketch:type="MSShapeGroup"></path>
            </g>
        </g>
    </g>
</svg>