<?xml version="1.0" encoding="UTF-8" standalone="no"?>
<svg width="60px" height="60px" viewBox="0 0 60 60" version="1.1" xmlns="http://www.w3.org/2000/svg" xmlns:xlink="http://www.w3.org/1999/xlink" xmlns:sketch="http://www.bohemiancoding.com/sketch/ns">
    <!-- Generator: Sketch 3.2.2 (9983) - http://www.bohemiancoding.com/sketch -->
    <title>instagram</title>
    <desc>Created with Sketch.</desc>
    <defs></defs>
    <g id="assets" stroke="none" stroke-width="1" fill="none" fill-rule="evenodd" sketch:type="MSPage">
        <g id="Desktop-HD" sketch:type="MSArtboardGroup" transform="translate(-1142.000000, -653.000000)" fill="#FFFFFF">
            <g id="instagram" sketch:type="MSLayerGroup" transform="translate(1142.000000, 653.000000)">
                <path d="M29.5,23 C25.3579205,23 22,26.3580649 22,30.5003217 C22,34.6425784 25.3579205,38 29.5,38 C33.6420795,38 37,34.6425784 37,30.5003217 C37,26.3580649 33.6420795,23 29.5,23 L29.5,23 Z M44,27 L40.7097066,27 C41.0203941,28.0590147 41.1888392,29.1804392 41.1888392,30.3421699 C41.1888392,36.8197775 35.9870063,42.0712944 29.5711212,42.0712944 C23.1546123,42.0712944 17.9534033,36.8197775 17.9534033,30.3421699 C17.9534033,29.1804392 18.1212245,28.0590147 18.4325359,27 L15,27 L15,43.4521092 C15,44.3037417 15.6687893,45 16.4860597,45 L42.5133164,45 C43.3305869,45 44,44.3037417 44,43.4521092 L44,27 L44,27 Z M38.7736128,15 C37.7970407,15 37,15.8195089 37,16.8212809 L37,21.1793941 C37,22.1804911 37.7970407,23 38.7736128,23 L43.2263872,23 C44.2029593,23 45,22.1804911 45,21.1793941 L45,16.8212809 C45,15.8195089 44.2029593,15 43.2263872,15 L38.7736128,15 L38.7736128,15 Z M15.8777312,11 L44.1229031,11 C46.8059724,11 49,13.252341 49,16.0059255 L49,44.9940745 C49,47.747659 46.8059724,50 44.1229031,50 L15.8777312,50 C13.1946619,50 11,47.747659 11,44.9940745 L11,16.0059255 C11,13.252341 13.1946619,11 15.8777312,11 L15.8777312,11 Z" id="Fill-81" sketch:type="MSShapeGroup"></path>
            </g>
        </g>
    </g>
</svg>