<?xml version="1.0" encoding="UTF-8" standalone="no"?>
<svg width="60px" height="60px" viewBox="0 0 60 60" version="1.1" xmlns="http://www.w3.org/2000/svg" xmlns:xlink="http://www.w3.org/1999/xlink" xmlns:sketch="http://www.bohemiancoding.com/sketch/ns">
    <!-- Generator: Sketch 3.2.2 (9983) - http://www.bohemiancoding.com/sketch -->
    <title>twitter-sel</title>
    <desc>Created with Sketch.</desc>
    <defs></defs>
    <g id="assets" stroke="none" stroke-width="1" fill="none" fill-rule="evenodd" sketch:type="MSPage">
        <g id="Desktop-HD" sketch:type="MSArtboardGroup" transform="translate(-1212.000000, -726.000000)" fill="#FF8383">
            <g id="twitter" sketch:type="MSLayerGroup" transform="translate(1212.000000, 653.000000)">
                <path d="M50.1084,101.449691 C53.0290667,101.200842 55.0096889,99.829487 55.7723556,97.9687892 C54.7184889,98.6371605 51.4482667,99.3658045 49.6421333,98.6717725 C49.5537333,98.2337507 49.4549333,97.8172122 49.3578667,97.4412533 C47.9816,92.22199 43.2698222,88.0172188 38.3327111,88.5250616 C38.7319556,88.3585655 39.1369778,88.2034079 39.5414222,88.0643628 C40.0845333,87.8632547 43.2732889,87.3273642 42.7712,86.1648756 C42.3476889,85.1426256 38.4523111,86.9376799 37.7191111,87.1722065 C38.6868889,86.7962477 40.2884889,86.1493598 40.4595111,85 C38.9763556,85.2100595 37.5203556,85.9345262 36.3954222,86.9878077 C36.8016,86.5360603 37.1095556,85.9858476 37.1748444,85.3932649 C33.2182222,88.00409 30.9071111,93.2675136 29.0368444,98.3727958 C27.5681333,96.9029758 26.2664,95.7452613 25.0987111,95.1025507 C21.8227111,93.2878034 17.9059556,91.3948806 11.7572444,89.0370817 C11.5683111,91.1382738 12.7631556,93.9323043 16.2061333,95.7900183 C15.4602222,95.6867788 14.0960889,95.9171282 13.0052444,96.1868637 C13.4495556,98.5941937 14.9003556,100.577227 18.8286667,101.536221 C17.0335111,101.658557 16.1056,102.080466 15.2649333,102.989928 C16.0824889,104.66384 18.0775556,106.634342 21.6667111,106.229738 C17.6765778,108.006293 20.0396889,111.296231 23.2868,110.805098 C17.7476444,116.714216 9.01453333,116.280371 4,111.338004 C17.0930222,129.765358 45.5543556,122.236036 49.7958222,104.486602 C52.9730222,104.51465 54.8415556,103.349774 56,102.065547 C54.1690222,102.386604 51.5158667,102.054805 50.1084,101.449691 L50.1084,101.449691 Z" id="Twitter__x28_alt_x29_-2" sketch:type="MSShapeGroup"></path>
            </g>
        </g>
    </g>
</svg>