<?xml version="1.0" encoding="UTF-8" standalone="no"?>
<svg width="64px" height="64px" viewBox="0 0 64 64" version="1.1" xmlns="http://www.w3.org/2000/svg" xmlns:xlink="http://www.w3.org/1999/xlink" xmlns:sketch="http://www.bohemiancoding.com/sketch/ns">
    <!-- Generator: Sketch 3.2.2 (9983) - http://www.bohemiancoding.com/sketch -->
    <title>bluesheet-logo</title>
    <desc>Created with Sketch.</desc>
    <defs>
        <filter x="-50%" y="-50%" width="200%" height="200%" filterUnits="objectBoundingBox" id="filter-1">
            <feOffset dx="2" dy="2" in="SourceAlpha" result="shadowOffsetOuter1"></feOffset>
            <feGaussianBlur stdDeviation="0" in="shadowOffsetOuter1" result="shadowBlurOuter1"></feGaussianBlur>
            <feColorMatrix values="0 0 0 0 0   0 0 0 0 0   0 0 0 0 0  0 0 0 0.35 0" in="shadowBlurOuter1" type="matrix" result="shadowMatrixOuter1"></feColorMatrix>
            <feMerge>
                <feMergeNode in="shadowMatrixOuter1"></feMergeNode>
                <feMergeNode in="SourceGraphic"></feMergeNode>
            </feMerge>
        </filter>
    </defs>
    <g id="assets" stroke="none" stroke-width="1" fill="none" fill-rule="evenodd" sketch:type="MSPage">
        <g id="bluesheet-logo" sketch:type="MSArtboardGroup" filter="url(#filter-1)" fill="#4990E2">
            <path d="M27.6135168,0.0825992971 C38.2678195,2.52237632 48.9243627,4.40776185 59.5797856,6.84239167 C60.2731947,6.95949068 60.957642,7.37126739 61.32283,8.07900862 C61.7339465,8.77774223 61.714903,9.68236419 61.5009431,10.4608795 C60.2209606,15.1139423 53.4693313,44.9121085 48.6467389,54.2930127 C46.9586514,57.5766795 41.8951095,64.2257348 29.6164495,59.586908 C23.2233943,57.1716383 15.0363287,50.4761627 8.94575528,47.3157765 C7.15118132,46.5256799 5.54368217,45.1668167 4.39546849,43.3923165 C2.73195891,40.8624633 2.15953238,37.5695364 2.40373783,34.4541882 C2.42950262,33.3449646 2.66810703,32.2653376 2.8226958,31.1754161 C11.1872924,35.0576984 22.4385504,34.9585426 30.803147,38.8421117 C27.4273324,52.0857412 32.732184,54.967288 34.1320098,55.5682246 C40.9305911,58.155738 44.5001775,52.1741897 46.3142763,47.671198 C50.0935166,38.2902938 56.3628867,11.803035 56.3628867,11.803035 L26.9450731,2.97394841 L16.3353699,33.8757507 C16.3353699,33.8757507 21.8377219,11.1336568 24.7379416,1.89956405 C24.9720652,1.13262992 25.4470336,0.421028284 26.1382022,0.155947024 C26.6053291,-0.0679565637 27.1262261,-0.0113372656 27.6135168,0.0825992971 Z" id="Shape" sketch:type="MSShapeGroup"></path>
        </g>
    </g>
</svg>