<?xml version="1.0" encoding="UTF-8" standalone="no"?>
<svg width="80px" height="160px" viewBox="0 0 80 160" version="1.1" xmlns="http://www.w3.org/2000/svg" xmlns:xlink="http://www.w3.org/1999/xlink" xmlns:sketch="http://www.bohemiancoding.com/sketch/ns">
    <!-- Generator: Sketch 3.2.2 (9983) - http://www.bohemiancoding.com/sketch -->
    <title>camera</title>
    <desc>Created with Sketch.</desc>
    <defs></defs>
    <g id="assets" stroke="none" stroke-width="1" fill="none" fill-rule="evenodd" sketch:type="MSPage">
        <g id="Desktop-HD" sketch:type="MSArtboardGroup" transform="translate(-727.000000, -423.000000)" fill="#FFFFFF">
            <g id="Group-7" sketch:type="MSLayerGroup" transform="translate(561.000000, 423.000000)">
                <g id="camera" transform="translate(166.000000, 0.000000)" sketch:type="MSShapeGroup">
                    <g id="camera-head" transform="translate(6.000000, 5.000000)">
                        <path d="M23.186052,36.9784899 L23.186052,31.4396343 L17.5678366,31.358786 L17.5678366,29.7388515 L6.49150746,29.7388515 L6.49150746,28.4593703 L0,28.4593697 L0,26.901741 L27.9788459,26.9017411 L27.9788459,1.19863281 L29.9323069,0 L45.8179163,1.19863281 L46,29.4080407 L40.8075013,29.7388515 L40.8075013,31.4396343 L24.7207572,31.4396343 L24.7207572,35.599988 L39.5585612,35.5540008 L39.5647894,37 L23.186052,36.9784899 Z M45,2.83709069 L45,27 L31,27 L31,2 L45,2.83709069 Z M29,2.89738407 C29,2.89738407 19.6237508,5.78172374 13.8652684,1 L13.8652684,4.48207882 L11.5396669,3.07601005 L5,3.07601006 L5,23.1656049 L11.5396669,23.1656051 L13.8652684,21.6826331 L13.8652684,25 C13.8652684,25 22.6391117,21.3785931 29,23.9788234 C28.7877236,23.9788234 29,2.89738407 29,2.89738407 Z M14.1629499,4.89471075 L14.1629499,21.7713368 L13.8370501,24 L13.8370501,3 L14.1629499,4.89471075 Z M29.3364258,57.5073242 L29.3457031,37.9769287 L33.4820557,37.9698486 C33.4820557,37.9698486 33.5567656,51.5400521 33.5562744,57.4224854 C33.5562587,57.6108152 29.3364258,57.5073242 29.3364258,57.5073242 Z" id="top"></path>
                        <path d="M52.4345344,26.9115938 C52.1283663,26.9699446 51.8164722,27 51.5,27 C47.3578644,27 44,21.8512746 44,15.5 C44,9.14872538 47.3578644,4 51.5,4 C51.8164722,4 52.1283663,4.03005538 52.4345344,4.08840615 C49.8206925,6.04181362 48,10.4165355 48,15.5 C48,20.5834645 49.8206925,24.9581864 52.4345344,26.9115938 L52.4345344,26.9115938 Z M57,29 C61.418278,29 65,23.1797017 65,16 C65,8.82029825 61.418278,3 57,3 C52.581722,3 49,8.82029825 49,16 C49,23.1797017 52.581722,29 57,29 Z M58,25 C60.7614237,25 63,20.9705627 63,16 C63,11.0294373 60.7614237,7 58,7 C55.2385763,7 53,11.0294373 53,16 C53,20.9705627 55.2385763,25 58,25 Z M39.9315563,21.0645291 C40.9109687,21.0645291 42.4543989,21.302477 44,23 C42.4543989,18.3669793 42.7054875,16.540491 42.7054875,15.2778951 C42.7054875,14.3629725 42.8631126,10.7954334 44,8 C42.4308225,9.49126112 41.0871028,9.49126112 39.9315563,9.49126112 C38.3125025,9.49126112 37,12.0820254 37,15.2778951 C37,18.4737649 38.3125025,21.0645291 39.9315563,21.0645291 Z M39,18.8562046 C38.932977,18.9499293 38.8623794,19 38.7894737,19 C38.3534594,19 38,17.209139 38,15 C38,12.790861 38.3534594,11 38.7894737,11 C38.8623794,11 38.932977,11.0500707 39,11.1437954 C38.6661908,11.6105928 38.4210526,13.1602502 38.4210526,15 C38.4210526,16.8397498 38.6661908,18.3894072 39,18.8562046 Z" id="lens"></path>
                    </g>
                </g>
            </g>
        </g>
    </g>
</svg>