<?xml version="1.0" encoding="UTF-8" standalone="no"?>
<svg width="80px" height="160px" viewBox="0 0 80 160" version="1.1" xmlns="http://www.w3.org/2000/svg" xmlns:xlink="http://www.w3.org/1999/xlink" xmlns:sketch="http://www.bohemiancoding.com/sketch/ns">
    <!-- Generator: Sketch 3.2.2 (9983) - http://www.bohemiancoding.com/sketch -->
    <title>camera</title>
    <desc>Created with Sketch.</desc>
    <defs></defs>
    <g id="assets" stroke="none" stroke-width="1" fill="none" fill-rule="evenodd" sketch:type="MSPage">
        <g id="Desktop-HD" sketch:type="MSArtboardGroup" transform="translate(-727.000000, -423.000000)" fill="#FFFFFF">
            <g id="Group-7" sketch:type="MSLayerGroup" transform="translate(561.000000, 423.000000)">
                <g id="camera" transform="translate(166.000000, 0.000000)" sketch:type="MSShapeGroup">
                    <g id="camera-stand" transform="translate(13.000000, 63.000000)">
                        <path d="M10.1163323,35.0988388 L19.0199964,5 L21,5 C21,5 20.083814,5.57784211 20.014361,5.9907019 C19.1087792,11.3738861 17.3908691,23.0136719 17.3908691,23.0136719 L13.7793375,36.2239044 L16.17871,36.9608544 L20.6831055,6 L24,6.47561708 C24,6.47561708 21.8964403,23.4461071 20.0658683,38.1547671 L21,38.4416789 L21,37.6175465 L24.5,5.26498704 L21,4.82238169 L21,0.44009696 L27.745294,0.44009696 L27.972436,39.6290486 L42.943123,37.9023229 C37.2475472,25.42932 29,7.29842807 29,7.29842807 L29,5.49311935 C29,5.49311935 30.5283699,4.38360081 31.4517241,5.49311935 C32.0443065,6.20517685 40.3395186,24.5057295 46.2066349,37.525908 L46.3526848,37.5090626 L46.6765485,35.9180638 C46.6765485,35.9180638 48,36.6500837 48,38.8784306 L46.6765493,38.3806278 L46.6063102,38.4130246 C49.6842562,45.2460787 52,50.4160706 52,50.4160706 C52,50.4160706 50.5040588,52.2541554 48.2294453,49.4080644 C48.0690646,49.1049076 46.2423536,45.1236304 43.7732531,39.7197317 L43.4050911,39.8895412 L27.9842215,41.6623998 L28,44.3846796 L26.6948865,44.3846796 L26.6948865,46 L22.2178343,46 L22.2178343,44.3846796 L21,44.3846796 L21,44.3422392 L19.8573452,45 L19.2387379,44.7952646 C18.2506924,52.7197948 17.4831713,58.8416702 17.4130162,59.3020302 C15.2336407,61.1210945 13,58.8096419 13,58.8096419 L16.0102743,38.1185931 L13.4908925,37.2789763 L11.5231776,44.4764688 C8.42628613,46.9924388 7,45.6336011 7,45.6336011 L9.83211351,36.0596406 L9.40729369,35.9180638 L8.01358273,36.1367759 C8.01358273,36.1367759 7.80669507,34.4895942 9.00779287,34 C9.00779288,34 9.67035246,34.9618593 9.67035246,34.9618593 L10.1163323,35.0988388 Z M19.6024873,41.8764426 C19.7031425,41.0684029 19.805346,40.2476624 19.908658,39.4177802 L21,39.7814842 L21,41.2612649 L19.6024873,41.8764426 Z M6.68695792,47.7810265 C6.39546215,48.7706522 0,71 0,71 C0,71 1.63323915,69.9596147 2.92002227,69.1052858 C3.40078395,67.584737 11,47 11,47 C11,47 9.0421837,48.0006737 6.68695792,47.7810265 Z M13.4971266,61 L10,90.6851267 L11.2662784,93 L12.8854482,90.6851267 L17,61.2925 C15.1229411,62.2561753 13.4971266,61 13.4971266,61 Z M51.6229279,51.4452889 L62,76 L59.3008874,74.3386641 L49,51 C49,51 50.3578109,52.2013611 51.6229279,51.4452889 Z" id="stand"></path>
                    </g>
                </g>
            </g>
        </g>
    </g>
</svg>