<?xml version="1.0" encoding="UTF-8" standalone="no"?>
<svg width="80px" height="160px" viewBox="0 0 80 160" version="1.1" xmlns="http://www.w3.org/2000/svg" xmlns:xlink="http://www.w3.org/1999/xlink" xmlns:sketch="http://www.bohemiancoding.com/sketch/ns">
    <!-- Generator: Sketch 3.2.2 (9983) - http://www.bohemiancoding.com/sketch -->
    <title>compass</title>
    <desc>Created with Sketch.</desc>
    <defs></defs>
    <g id="assets" stroke="none" stroke-width="1" fill="none" fill-rule="evenodd" sketch:type="MSPage">
        <g id="Group-7" sketch:type="MSLayerGroup" fill="#FFFFFF">
            <g id="compass" sketch:type="MSShapeGroup">
                <g id="compass-head" transform="translate(3.000000, 4.000000)">
                    <path d="M30.167921,44.947955 C29.4393389,45.6860595 26.4191972,48.7017886 25.9756827,48.4299375 C21.1395545,45.4656449 18,40.6834727 18,35.2887738 C18,26.2927325 26.7304474,19 37.5,19 C48.2695526,19 57,26.2927325 57,35.2887738 C57,38.3012021 56.0210353,41.1226345 54.3143576,43.543195 C52.7602617,45.7473505 50.6027556,47.6191082 48.0315482,49 C48.0315474,49.0000004 45.8639762,46.7540763 44.6941109,45.541923 C42.7054835,46.4716437 40.4247276,47 38,47 C35.0985385,47 32.4032275,46.2434553 30.167921,44.947955 L30.167921,44.947955 Z M37.5,45 C43.2989899,45 48,40.9705627 48,36 C48,31.0294373 43.2989899,27 37.5,27 C31.7010101,27 27,31.0294373 27,36 C27,40.9705627 31.7010101,45 37.5,45 Z" id="circle"></path>
                    <path d="M33,14.9126975 L33,1.75280357 C33,1.75280357 33.7340612,-1.15610635e-15 38,0 C42.2659388,1.15610635e-15 43,1.75280357 43,1.75280357 L43,14.9126975 L40.1753423,21.2948069 C40.1753423,21.2948069 40.0658665,23 38,23 C35.9341335,23 35.6069124,21.2948069 35.6069124,21.2948069 L33,14.9126975 Z M37,4 L37,14 L40,14 L40,4 L37,4 Z" id="top"></path>
                    <path d="M37,75.691909 C36.9692526,75.6919735 36.9384943,75.6920057 36.9077251,75.6920057 C24.3831308,75.6920057 13.6621304,70.3513977 9.24610114,62.7833353 C9.09901952,62.6888262 8.95334733,62.5942201 8.80910977,62.4995551 C3.39954869,58.9491879 0,55 0,55 C0,58.5354204 1.25162602,62.1003889 3.45071303,65.4290391 L3.68397338,65.2833832 L6.16282152,63.7355041 L6.58794047,63.470045 L7.09808321,64.3549086 L6.67296426,64.6203677 L4.19411612,66.1682468 L4.03035555,66.2705046 C4.67309506,67.1665395 5.38433844,68.0433344 6.15792231,68.8955018 L8.10350963,67.3768861 L8.50012534,67.0673103 L9.09504889,67.8928458 L8.69843319,68.2024217 L6.85609398,69.6404477 C13.7520537,76.770815 25.0384002,82 36.9077251,82 C36.9384927,82 36.9692511,81.9999724 37,81.9999172 L37,75.6919112 L37,75.691909 Z M37,75.691909 C37.0307474,75.6919735 37.0615057,75.6920057 37.0922749,75.6920057 C49.6168692,75.6920057 60.3378696,70.3513977 64.7538989,62.7833353 C64.9009805,62.6888262 65.0466527,62.5942201 65.1908902,62.4995551 C70.6004513,58.9491879 74,55 74,55 C74,58.5354204 72.748374,62.1003889 70.549287,65.4290391 L70.3160266,65.2833832 L67.8371785,63.7355041 L67.4120595,63.470045 L66.9019168,64.3549086 L67.3270357,64.6203677 L69.8058839,66.1682468 L69.9696444,66.2705046 C69.3269049,67.1665395 68.6156616,68.0433344 67.8420777,68.8955018 L65.8964904,67.3768861 L65.4998747,67.0673103 L64.9049511,67.8928458 L65.3015668,68.2024217 L67.143906,69.6404477 C60.2479463,76.770815 48.9615998,82 37.0922749,82 C37.0615073,82 37.0307489,81.9999724 37,81.9999172 L37,75.6919112 L37,75.691909 Z" id="Oval-5"></path>
                </g>
            </g>
        </g>
    </g>
</svg>