<?xml version="1.0" encoding="UTF-8" standalone="no"?>
<svg width="28px" height="28px" viewBox="0 0 28 28" version="1.1" xmlns="http://www.w3.org/2000/svg" xmlns:xlink="http://www.w3.org/1999/xlink" xmlns:sketch="http://www.bohemiancoding.com/sketch/ns">
    <!-- Generator: Sketch 3.2.2 (9983) - http://www.bohemiancoding.com/sketch -->
    <title>date-icon</title>
    <desc>Created with Sketch.</desc>
    <defs></defs>
    <g id="assets" stroke="none" stroke-width="1" fill="none" fill-rule="evenodd" sketch:type="MSPage">
        <g id="icons-black" sketch:type="MSArtboardGroup" transform="translate(-280.000000, -48.000000)">
            <g id="date-icon" sketch:type="MSLayerGroup" transform="translate(280.000000, 48.000000)">
                <path d="M0,6.00670248 C0,2.6892923 2.68475771,0 6.00670248,0 L21.9932975,0 C25.3107077,0 28,2.68475771 28,6.00670248 L28,21.9932975 C28,25.3107077 25.3152423,28 21.9932975,28 L6.00670248,28 C2.6892923,28 0,25.3152423 0,21.9932975 L0,6.00670248 Z M1,9.94054221 L27,9.94054221 L27,22.6233428 C27,24.8295379 25.2129147,26.6180124 22.9944797,26.6180124 L5.00552025,26.6180124 C2.7933325,26.6180124 1,24.833231 1,22.6233428 L1,9.94054221 Z" id="Rectangle-221" fill="#979797" sketch:type="MSShapeGroup"></path>
                <rect id="Rectangle" fill="#FF8484" sketch:type="MSShapeGroup" x="1" y="1" width="26" height="9"></rect>
            </g>
        </g>
    </g>
</svg>