<?xml version="1.0" encoding="UTF-8" standalone="no"?>
<svg width="31px" height="33px" viewBox="0 0 31 33" version="1.1" xmlns="http://www.w3.org/2000/svg" xmlns:xlink="http://www.w3.org/1999/xlink" xmlns:sketch="http://www.bohemiancoding.com/sketch/ns">
    <!-- Generator: Sketch 3.2.2 (9983) - http://www.bohemiancoding.com/sketch -->
    <title>date-icon</title>
    <desc>Created with Sketch.</desc>
    <defs></defs>
    <g id="assets" stroke="none" stroke-width="1" fill="none" fill-rule="evenodd" sketch:type="MSPage">
        <g id="icons-black" sketch:type="MSArtboardGroup" transform="translate(-211.000000, -45.000000)" fill="#9B9B9B">
            <g id="Group" sketch:type="MSLayerGroup" transform="translate(211.113870, 45.000000)">
                <path d="M11.7567568,4.05405405 L11.7567568,3.65067422 C11.7567568,1.628538 10.1232011,0 8.10810811,0 C6.09711541,0 4.45945946,1.63446252 4.45945946,3.65067422 L4.45945946,4.05405405 L5.68434189e-14,4.05405405 L5.68434189e-14,32.4324324 L30,32.4324324 L30,4.05405405 L25.5405405,4.05405405 L25.5405405,3.65067422 C25.5405405,1.628538 23.9069849,0 21.8918919,0 C19.8808992,0 18.2432432,1.63446252 18.2432432,3.65067422 L18.2432432,4.05405405 L11.7567568,4.05405405 Z M6.89189189,3.24708552 C6.89189189,2.57326582 7.43172749,2.02702703 8.10810811,2.02702703 C8.77980578,2.02702703 9.32432432,2.58006122 9.32432432,3.24708552 L9.32432432,7.29345502 C9.32432432,7.96727472 8.78448873,8.51351351 8.10810811,8.51351351 C7.43641044,8.51351351 6.89189189,7.96047932 6.89189189,7.29345502 L6.89189189,3.24708552 Z M20.6756757,3.24708552 C20.6756757,2.57326582 21.2155113,2.02702703 21.8918919,2.02702703 C22.5635896,2.02702703 23.1081081,2.58006122 23.1081081,3.24708552 L23.1081081,7.29345502 C23.1081081,7.96727472 22.5682725,8.51351351 21.8918919,8.51351351 C21.2201942,8.51351351 20.6756757,7.96047932 20.6756757,7.29345502 L20.6756757,3.24708552 Z M2.43243243,11.3513514 L27.5675676,11.3513514 L27.5675676,30 L2.43243243,30 L2.43243243,11.3513514 Z" id="date-icon" sketch:type="MSShapeGroup"></path>
            </g>
        </g>
    </g>
</svg>