<?xml version="1.0" encoding="UTF-8" standalone="no"?>
<svg width="258px" height="100px" viewBox="0 0 258 100" version="1.1" xmlns="http://www.w3.org/2000/svg" xmlns:xlink="http://www.w3.org/1999/xlink" xmlns:sketch="http://www.bohemiancoding.com/sketch/ns">
    <!-- Generator: Sketch 3.2.2 (9983) - http://www.bohemiancoding.com/sketch -->
    <title>desk-arts</title>
    <desc>Created with Sketch.</desc>
    <defs></defs>
    <g id="testing" stroke="none" stroke-width="1" fill="none" fill-rule="evenodd" sketch:type="MSPage">
        <g id="Work-3" sketch:type="MSArtboardGroup" transform="translate(-1169.000000, -59.000000)">
            <g id="desk-arts" sketch:type="MSLayerGroup" transform="translate(1169.000000, 59.000000)">
                <g id="canvas-3" transform="translate(68.510526, 0.653595)" sketch:type="MSShapeGroup">
                    <g id="Group" transform="translate(34.728947, 43.464052) scale(-1, 1) rotate(8.000000) translate(-34.728947, -43.464052) translate(5.242105, 3.921569)">
                        <path d="M2.62105263,0.326797386 L38.9881579,3.92156863 L53.0763158,60.7843137 L17.0368421,64.0522876 L2.62105263,0.326797386 Z" id="Path-911" fill="#F4F4F4"></path>
                        <path d="M13.9243421,68.3006536 L13.9243421,77.7777778 L15.2348684,78.7581699 L15.5625,67.9738562 L13.9243421,68.3006536 Z" id="Path-914" fill="#904D02"></path>
                        <path d="M45.3769737,64.7058824 L48.9809211,73.2026144 L51.6019737,73.5294118 L47.9980263,64.0522876 L45.3769737,64.7058824 Z" id="Path-916" fill="#904D02"></path>
                        <path d="M48.1618421,64.7058824 L51.1105263,64.0522876 L55.0421053,73.5294118 L51.4381579,73.5294118 L48.1618421,64.7058824 Z" id="Path-917" fill="#E49C58"></path>
                        <path d="M15.2348684,67.9738562 L19.4940789,67.6470588 L19.4940789,78.4313725 L15.2348684,78.7581699 L15.2348684,67.9738562 Z" id="Path-915" fill="#E49C58"></path>
                        <path d="M57.6631579,59.1503268 L16.3815789,63.0718954 L17.0368421,68.627451 L58.6460526,64.0522876 L57.6631579,59.1503268 Z" id="Path-909" fill="#E49C58"></path>
                        <path d="M15.3986842,66.0130719 L13.7605263,66.6666667 L0,1.96078431 L2.29342105,0.326797386 L16.0539474,63.7254902 L15.3986842,66.0130719 Z" id="Path-910" fill="#D4D4D4"></path>
                        <path d="M17.3644737,68.627451 L12.1223684,70.2614379 L11.7947368,65.0326797 L16.7092105,63.0718954 L17.3644737,68.627451 Z" id="Path-912" fill="#904D02"></path>
                        <path d="M9.50131579,47.7124183 L1.31052632,79.0849673 L6.225,79.0849673 L11.7947368,59.1503268 L9.50131579,47.7124183 Z" id="Path-913" fill="#904D02"></path>
                        <path d="M9.50131579,47.7124183 L1.31052632,79.0849673 L3.60394737,79.0849673 L9.50131579,56.2091503 L9.50131579,47.7124183 Z" id="Path-918" fill="#E49C58"></path>
                    </g>
                    <g id="Group" transform="translate(16.381579, 7.843137)">
                        <path d="M9.42661276,10.1843686 C7.97904536,10.3107075 6.67796709,12.8871693 6.52057311,15.9390571 C6.36317912,18.990945 7.40907132,21.362571 8.85663872,21.2362321 C10.3042061,21.1098933 11.6052844,18.5334315 11.7626784,15.4815436 C11.9200724,12.4296558 10.8741802,10.0580297 9.42661276,10.1843686 Z" id="Oval-32" fill="#82CCDD"></path>
                        <path d="M22.304828,7.11885063 C19.2287473,7.3873207 16.3748285,14.5904945 15.9304219,23.2075896 C15.4860154,31.8246847 17.6194088,38.5925825 20.6954895,38.3241124 C23.7715703,38.0556423 26.6254891,30.8524685 27.0698956,22.2353734 C27.5143021,13.6182783 25.3809087,6.85038055 22.304828,7.11885063 Z" id="Oval-33" fill="#DE6161"></path>
                        <path d="M10.1030481,47.6619698 L4.86094283,48.1194833 L5.73266782,31.2166332 L10.9747731,30.7591197 L10.1030481,47.6619698 Z" id="Rectangle-39" fill="#E69774"></path>
                        <path d="M25.8628918,45.6393198 L12.1023655,46.8402927 L12.3370606,42.2895253 L26.097587,41.0885524 L25.8628918,45.6393198 Z" id="Rectangle-40" fill="#9ACEC5"></path>
                        <path d="M25.4605572,53.4406352 L0.560557155,55.6138243 L0.795252345,51.0630569 L25.6952523,48.8898679 L25.4605572,53.4406352 Z" id="Rectangle-41" fill="#ECC251"></path>
                        <path d="M27.6063418,11.8336195 L32.4355263,0.410026271 L36.1247628,11.0901601 L27.6063418,11.8336195 Z" id="Triangle-1" fill="#A8D7D0"></path>
                    </g>
                </g>
                <g id="mic-3" transform="translate(8.881579, 47.712418)" sketch:type="MSShapeGroup">
                    <path d="M18.7866926,16.6862745 C18.7435048,20.7279178 18.7910114,24.7652661 18.7694175,28.8026144 C18.7694175,30.7396825 18.2166136,32.6939309 17.0678182,34.2702148 C15.5173762,36.5594771 12.8786017,37.8265173 10.1923206,38.2345472 C10.1707267,39.6519141 10.1664079,41.069281 10.1793642,42.486648 C12.1573654,42.4780579 14.1396854,42.4608777 16.1176866,42.5596639 C16.1133678,43.3628385 16.1133678,44.1660131 16.1176866,44.9734827 C15.4655508,44.9777778 4.69883254,44.8789916 2.85039474,44.9648926 C2.87630742,44.1359477 2.89790132,43.3070028 2.923814,42.4780579 C4.89317763,42.4952381 6.86254127,42.4995331 8.8319049,42.4565826 C8.82758612,41.064986 8.82758612,39.6776844 8.82758612,38.2903828 C4.729064,37.7492063 0.9242189,34.6825397 0.349821172,30.4819795 C0.305294479,29.7628389 0.16601554,28.9626154 0.154928962,28.2030136 C0.139132513,27.120713 0.383583232,26.1208798 1.53316685,25.5555555 C1.63681757,27.5398692 1.36041567,29.4039216 1.95208852,31.3366947 C2.91085766,34.5107376 6.08084211,36.8300654 9.40630263,36.8429505 C13.3925365,36.9503268 17.1239623,33.625957 17.3614952,29.6530345 C17.504015,26.3630252 17.3528577,23.0687208 17.4349145,19.7787115 C17.1714689,19.7658263 16.640259,19.740056 16.3768134,19.7271709 C11.772994,19.6713352 7.16917464,19.654155 2.56967404,19.7014006 C2.32350359,19.7014006 1.83980024,19.7056956 1.59794856,19.7056956 C1.55044199,21.4323063 1.6756866,23.163212 1.53316687,24.8812325 C1.55044199,25.6113912 0.669410888,25.5727357 0.237532898,25.9850607 C0.12524462,22.7809523 0.241851675,19.8173669 0.237532895,16.6089636" id="Shape-2" fill="#565A63"></path>
                    <path d="M2.55011404,20.5604108 C7.14961464,20.5131653 11.753434,20.5303455 16.3572534,20.5861811 C16.4220351,23.3135387 16.4220351,26.0408964 16.3918036,28.772549 C16.4177163,30.7396825 15.618742,32.6896359 14.1849071,34.0468721 C11.9477791,36.215873 8.15589036,36.4263305 5.61212899,34.6739496 C3.91052971,33.5529412 2.69695256,31.6588235 2.61489574,29.605789 C2.50692624,26.5906629 2.64944598,23.5755369 2.55011404,20.5604108 L2.55011404,20.5604108 Z" id="Shape-3" fill="#9CA3AB"></path>
                    <path d="M2.5858331,13.6260911 C2.58217787,14.2914946 2.57203546,14.9568982 2.55011404,15.6223018 C3.51297126,15.6321921 4.47601774,15.6392591 5.43921386,15.6437393 L5.43921386,15.6437393 C5.2807379,15.4880095 5.18253589,15.2717498 5.18253589,15.0326797 C5.18253589,14.5582615 5.56925261,14.1736695 6.04629187,14.1736695 C6.52333112,14.1736695 6.91004785,14.5582615 6.91004785,15.0326797 C6.91004785,15.2739498 6.81003013,15.4919878 6.64897952,15.6480231 C8.54567246,15.6526611 10.4428812,15.6476541 12.3403034,15.6348067 C12.1870933,15.479792 12.0925837,15.2672122 12.0925837,15.0326797 C12.0925837,14.5582615 12.4793005,14.1736695 12.9563397,14.1736695 C13.433379,14.1736695 13.8200957,14.5582615 13.8200957,15.0326797 C13.8200957,15.2624545 13.7293816,15.4711582 13.5816273,15.6253022 L13.5816273,15.6253022 C14.5068126,15.6174126 15.432033,15.6077526 16.3572534,15.5965314 C16.3727481,14.9441949 16.3845367,14.2918583 16.393092,13.6394629 L16.393092,13.6394629 C16.2702586,13.7062188 16.1293279,13.7441643 15.9794856,13.7441643 C15.5024464,13.7441643 15.1157297,13.3595723 15.1157297,12.8851541 C15.1157297,12.4107358 15.5024464,12.0261438 15.9794856,12.0261438 C16.1351311,12.0261438 16.2811612,12.0670854 16.4072814,12.1387304 C16.4111314,11.490452 16.4121478,10.8420712 16.4107942,10.1935303 L16.4107942,10.1935303 C16.2838759,10.2664168 16.1365782,10.3081232 15.9794856,10.3081232 C15.5024464,10.3081232 15.1157297,9.92353125 15.1157297,9.44911298 C15.1157297,8.97469471 15.5024464,8.59010271 15.9794856,8.59010271 C16.1336616,8.59010271 16.278403,8.63027488 16.403704,8.70066828 C16.4005772,8.27059542 16.3965655,7.84043277 16.3918036,7.41016356 C16.3945829,7.19917992 16.387873,6.9883939 16.3719086,6.77851562 C16.2541604,6.83833993 16.1207852,6.87208217 15.9794856,6.87208217 C15.5024464,6.87208217 15.1157297,6.48749017 15.1157297,6.0130719 C15.1157297,5.53865362 15.5024464,5.15406162 15.9794856,5.15406162 C16.0063702,5.15406162 16.0329679,5.15528314 16.0592257,5.1576734 L16.0592257,5.1576734 C15.7005983,4.01656398 15.0613584,2.96546983 14.1849071,2.1358405 C11.9477791,-0.0331604319 8.15589036,-0.243617948 5.61212899,1.508763 C4.30819796,2.36778878 3.2908392,3.6807933 2.84961322,5.17140309 C2.90567305,5.16003217 2.96370839,5.15406162 3.02314593,5.15406162 C3.50018519,5.15406162 3.88690191,5.53865362 3.88690191,6.0130719 C3.88690191,6.48749017 3.50018519,6.87208217 3.02314593,6.87208217 C2.87284975,6.87208217 2.73151926,6.83390639 2.60842384,6.76677329 L2.60842384,6.76677329 C2.58738334,7.41629488 2.57748755,8.06581647 2.57381461,8.71533806 L2.57381461,8.71533806 C2.70472489,8.63588311 2.85855958,8.59010271 3.02314593,8.59010271 C3.50018519,8.59010271 3.88690191,8.97469471 3.88690191,9.44911298 C3.88690191,9.92353125 3.50018519,10.3081232 3.02314593,10.3081232 C2.85863853,10.3081232 2.70487247,10.2623868 2.574003,10.1830022 C2.57693119,10.8368221 2.58240847,11.4906421 2.5854146,12.144462 C2.71377544,12.0692731 2.86339617,12.0261438 3.02314593,12.0261438 C3.50018519,12.0261438 3.88690191,12.4107358 3.88690191,12.8851541 C3.88690191,13.3595723 3.50018519,13.7441643 3.02314593,13.7441643 C2.86356975,13.7441643 2.71410061,13.7011287 2.5858331,13.6260911 Z M9.50131579,3.00653595 C9.97835505,3.00653595 10.3650718,2.62194395 10.3650718,2.14752568 C10.3650718,1.6731074 9.97835505,1.28851541 9.50131579,1.28851541 C9.02427653,1.28851541 8.63755981,1.6731074 8.63755981,2.14752568 C8.63755981,2.62194395 9.02427653,3.00653595 9.50131579,3.00653595 Z M9.50131579,6.44257703 C9.97835505,6.44257703 10.3650718,6.05798503 10.3650718,5.58356676 C10.3650718,5.10914849 9.97835505,4.72455649 9.50131579,4.72455649 C9.02427653,4.72455649 8.63755981,5.10914849 8.63755981,5.58356676 C8.63755981,6.05798503 9.02427653,6.44257703 9.50131579,6.44257703 Z M9.50131579,9.87861811 C9.97835505,9.87861811 10.3650718,9.49402612 10.3650718,9.01960784 C10.3650718,8.54518957 9.97835505,8.16059757 9.50131579,8.16059757 C9.02427653,8.16059757 8.63755981,8.54518957 8.63755981,9.01960784 C8.63755981,9.49402612 9.02427653,9.87861811 9.50131579,9.87861811 Z M9.50131579,13.3146592 C9.97835505,13.3146592 10.3650718,12.9300672 10.3650718,12.4556489 C10.3650718,11.9812307 9.97835505,11.5966387 9.50131579,11.5966387 C9.02427653,11.5966387 8.63755981,11.9812307 8.63755981,12.4556489 C8.63755981,12.9300672 9.02427653,13.3146592 9.50131579,13.3146592 Z M6.04629187,5.15406162 C6.52333112,5.15406162 6.91004785,4.76946963 6.91004785,4.29505135 C6.91004785,3.82063308 6.52333112,3.43604108 6.04629187,3.43604108 C5.56925261,3.43604108 5.18253589,3.82063308 5.18253589,4.29505135 C5.18253589,4.76946963 5.56925261,5.15406162 6.04629187,5.15406162 Z M6.04629187,8.59010271 C6.52333112,8.59010271 6.91004785,8.20551071 6.91004785,7.73109244 C6.91004785,7.25667416 6.52333112,6.87208217 6.04629187,6.87208217 C5.56925261,6.87208217 5.18253589,7.25667416 5.18253589,7.73109244 C5.18253589,8.20551071 5.56925261,8.59010271 6.04629187,8.59010271 Z M6.04629187,12.0261438 C6.52333112,12.0261438 6.91004785,11.6415518 6.91004785,11.1671335 C6.91004785,10.6927152 6.52333112,10.3081232 6.04629187,10.3081232 C5.56925261,10.3081232 5.18253589,10.6927152 5.18253589,11.1671335 C5.18253589,11.6415518 5.56925261,12.0261438 6.04629187,12.0261438 Z M12.9563397,5.15406162 C13.433379,5.15406162 13.8200957,4.76946963 13.8200957,4.29505135 C13.8200957,3.82063308 13.433379,3.43604108 12.9563397,3.43604108 C12.4793005,3.43604108 12.0925837,3.82063308 12.0925837,4.29505135 C12.0925837,4.76946963 12.4793005,5.15406162 12.9563397,5.15406162 Z M12.9563397,8.59010271 C13.433379,8.59010271 13.8200957,8.20551071 13.8200957,7.73109244 C13.8200957,7.25667416 13.433379,6.87208217 12.9563397,6.87208217 C12.4793005,6.87208217 12.0925837,7.25667416 12.0925837,7.73109244 C12.0925837,8.20551071 12.4793005,8.59010271 12.9563397,8.59010271 Z M12.9563397,12.0261438 C13.433379,12.0261438 13.8200957,11.6415518 13.8200957,11.1671335 C13.8200957,10.6927152 13.433379,10.3081232 12.9563397,10.3081232 C12.4793005,10.3081232 12.0925837,10.6927152 12.0925837,11.1671335 C12.0925837,11.6415518 12.4793005,12.0261438 12.9563397,12.0261438 Z" id="Shape-4" fill="#D1DCE2"></path>
                </g>
                <g id="speaker-3" transform="translate(172.042105, 15.686275)" sketch:type="MSShapeGroup">
                    <rect id="Rectangle-1" fill="#FF6769" x="0" y="0" width="53.0763158" height="77.124183" rx="6"></rect>
                    <ellipse id="Oval-24" fill="#60646D" cx="4.58684211" cy="73.2026144" rx="1.96578947" ry="1.96078431"></ellipse>
                    <ellipse id="Oval-25" fill="#60646D" cx="4.58684211" cy="4.5751634" rx="1.96578947" ry="1.96078431"></ellipse>
                    <ellipse id="Oval-27" fill="#60646D" cx="48.4894737" cy="73.2026144" rx="1.96578947" ry="1.96078431"></ellipse>
                    <ellipse id="Oval-26" fill="#60646D" cx="48.4894737" cy="4.5751634" rx="1.96578947" ry="1.96078431"></ellipse>
                    <ellipse id="Oval-28" fill="#60646D" cx="26.8657895" cy="50.3267974" rx="17.0368421" ry="16.9934641"></ellipse>
                    <ellipse id="Oval-20" stroke="#F7EBCB" stroke-width="8" cx="26.8657895" cy="50.3267974" rx="10.4842105" ry="10.4575163"></ellipse>
                    <ellipse id="Oval-29" fill="#60646D" cx="39.9710526" cy="38.5620915" rx="3.27631579" ry="3.26797386"></ellipse>
                    <ellipse id="Oval-30" fill="#60646D" cx="39.9710526" cy="61.4379085" rx="3.27631579" ry="3.26797386"></ellipse>
                    <ellipse id="Oval-32" fill="#60646D" cx="13.1052632" cy="38.5620915" rx="3.27631579" ry="3.26797386"></ellipse>
                    <ellipse id="Oval-31" fill="#60646D" cx="13.7605263" cy="61.4379085" rx="3.27631579" ry="3.26797386"></ellipse>
                    <g id="Oval-33-+-Oval-34-+-Oval-39" transform="translate(19.002632, 9.150327)">
                        <ellipse id="Oval-33" fill="#F7EBCB" cx="7.86315789" cy="7.84313725" rx="7.86315789" ry="7.84313725"></ellipse>
                        <ellipse id="Oval-34" fill="#60646D" cx="7.86315789" cy="7.84313725" rx="6.17819549" ry="6.16246499"></ellipse>
                        <ellipse id="Oval-39" fill="#FFFFFF" cx="7.86315789" cy="7.84313725" rx="2.80827068" ry="2.80112045"></ellipse>
                    </g>
                </g>
                <g id="mixer-3" transform="translate(128.139474, 75.163399)" sketch:type="MSShapeGroup">
                    <rect id="Rectangle-5" fill="#82D6E3" x="2.93738657" y="1.30718954" width="2.44782214" height="5.88235294" rx="2"></rect>
                    <rect id="Rectangle-6" fill="#92F979" x="6.11955535" y="1.30718954" width="2.44782214" height="5.88235294" rx="2"></rect>
                    <rect id="Rectangle-7" fill="#E65B5B" x="9.54650635" y="1.30718954" width="2.44782214" height="5.88235294" rx="2"></rect>
                    <rect id="Rectangle-10" fill="#82D6E3" x="27.9051724" y="0.405305351" width="2.44782214" height="6.78423713" rx="2"></rect>
                    <rect id="Rectangle-9" fill="#92F979" x="31.0873412" y="0.405305351" width="2.44782214" height="6.78423713" rx="2"></rect>
                    <rect id="Rectangle-8" fill="#E65B5B" x="34.5142922" y="0.405305351" width="2.44782214" height="6.78423713" rx="2"></rect>
                    <rect id="Rectangle-17" fill="#000000" x="13.707804" y="5.22875817" width="6.36433757" height="1.96078431"></rect>
                    <rect id="Rectangle-18" fill="#000000" x="21.0512704" y="3.92156863" width="4.89564428" height="3.26797386"></rect>
                    <rect id="Rectangle-3" fill="#1A1A1B" x="0.244782214" y="6.53594771" width="42.347323" height="11.1111111"></rect>
                    <rect id="Rectangle-4" fill="#61656E" x="0.244782214" y="6.53594771" width="42.347323" height="3.26797386"></rect>
                </g>
                <g id="piano-3" transform="translate(35.092105, 81.045752)" sketch:type="MSShapeGroup">
                    <path d="M0,5.61053831 C0,3.95580526 1.34646835,2.61437909 2.99052406,2.61437909 L86.1252654,2.61437909 C87.7768862,2.61437909 89.1157895,3.96454135 89.1157895,5.61053834 L89.1157895,8.76854668 C89.1157895,10.4232797 87.7693211,11.7647059 86.1252654,11.7647059 L2.99052406,11.7647059 C1.33890323,11.7647059 0,10.4145437 0,8.76854666 L0,5.61053831 Z" id="Rectangle-19" fill="#EE835B"></path>
                    <g id="Group" transform="translate(4.586842, 0.000000)">
                        <g transform="translate(0.000000, 2.614379)" stroke="#666666" fill="#FFFFFF">
                            <rect id="Rectangle-20" x="0" y="0" width="7.20789474" height="8.49673203"></rect>
                            <rect id="Rectangle-21" x="7.20789474" y="0" width="7.20789474" height="8.49673203"></rect>
                            <rect id="Rectangle-22" x="14.4157895" y="0" width="7.20789474" height="8.49673203"></rect>
                            <rect id="Rectangle-23" x="21.6236842" y="0" width="7.20789474" height="8.49673203"></rect>
                            <rect id="Rectangle-24" x="28.8315789" y="0" width="7.20789474" height="8.49673203"></rect>
                            <rect id="Rectangle-29" x="36.0394737" y="0" width="7.20789474" height="8.49673203"></rect>
                            <rect id="Rectangle-28" x="43.2473684" y="0" width="7.20789474" height="8.49673203"></rect>
                            <rect id="Rectangle-27" x="50.4552632" y="0" width="7.20789474" height="8.49673203"></rect>
                            <rect id="Rectangle-26" x="57.6631579" y="0" width="7.20789474" height="8.49673203"></rect>
                            <rect id="Rectangle-25" x="64.8710526" y="0" width="7.20789474" height="8.49673203"></rect>
                            <rect id="Rectangle-39" x="72.0789474" y="0" width="7.20789474" height="8.49673203"></rect>
                        </g>
                        <rect id="Rectangle-34" fill="#3F3F3F" x="12.45" y="0" width="3.93157895" height="3.26797386" rx="1"></rect>
                        <rect id="Rectangle-36" fill="#3F3F3F" x="19.6578947" y="0" width="3.93157895" height="3.26797386" rx="1"></rect>
                        <rect id="Rectangle-35" fill="#3F3F3F" x="5.24210526" y="0" width="3.93157895" height="3.26797386" rx="1"></rect>
                        <rect id="Rectangle-42" fill="#3F3F3F" x="41.2815789" y="0" width="3.93157895" height="3.26797386" rx="1"></rect>
                        <rect id="Rectangle-41" fill="#3F3F3F" x="34.0736842" y="0" width="3.93157895" height="3.26797386" rx="1"></rect>
                        <g id="Rectangle-44-+-Rectangle-40-+-Rectangle-43" transform="translate(55.697368, 0.000000)" fill="#3F3F3F">
                            <rect id="Rectangle-44" x="7.20789474" y="0" width="3.93157895" height="3.26797386" rx="1"></rect>
                            <rect id="Rectangle-40" x="14.4157895" y="0" width="3.93157895" height="3.26797386" rx="1"></rect>
                            <rect id="Rectangle-43" x="0" y="0" width="3.93157895" height="3.26797386" rx="1"></rect>
                        </g>
                    </g>
                </g>
                <g id="camera-3" transform="translate(175.318421, 0.000000)" sketch:type="MSShapeGroup">
                    <path d="M16.1631497,5.0951788 C17.6015942,5.00092501 19.0736354,5.30690328 20.2518206,5.93306718 C21.4636025,6.57690367 22.3594375,7.55184121 22.7124328,8.63766555 C23.0168741,9.58072314 22.9425472,10.5944711 22.4586168,11.4966391 C21.9222203,12.5185303 20.8940696,13.3882986 19.6054296,13.9046153 C18.261562,14.4483072 16.6438585,14.6049348 15.1642236,14.3209606 C14.0628965,14.1177259 13.0395782,13.6800695 12.2461441,13.0700189 C11.0817657,12.1997308 10.4109826,10.9654221 10.444119,9.72938075 C10.4270906,8.25926434 11.4379827,6.81912202 13.0202486,5.966853 C13.9338024,5.46509023 15.0365101,5.16309696 16.1631497,5.0951788 L16.1631497,5.0951788 Z M16.3019087,7.1056951 C15.791285,7.14519852 15.2889455,7.26422857 14.8494272,7.46503763 C13.8914614,7.88519465 13.2367862,8.66053595 13.1212688,9.48906826 C13.0931948,9.86850903 13.1201182,10.2573059 13.2910931,10.6182078 C13.6035884,11.3511002 14.3737809,11.9580322 15.3165592,12.2492833 C16.437446,12.6055071 17.8022539,12.4793734 18.7737965,11.9277116 C19.7812369,11.3829802 20.3537613,10.414973 20.2044171,9.48664262 C20.1204254,8.85112264 19.7172651,8.2431511 19.0931951,7.81086584 C18.3549884,7.28865832 17.3118803,7.01525305 16.3019087,7.1056951 L16.3019087,7.1056951 Z" id="Shape" fill="#565A63"></path>
                    <path d="M14.7304581,0.11549515 C14.8977512,0.0276520132 15.1106069,0.0505224158 15.302062,0.0430722089 C16.3760055,0.0458443789 17.450179,0.0420326452 18.5241225,0.0451513364 C18.6971684,0.0519085008 18.8743564,0.0437652514 19.0451012,0.0697543453 C19.1870818,0.135766644 19.1274822,0.288062734 19.1555561,0.393751715 C19.3769261,0.404840395 19.5819579,0.47535747 19.76743,0.562680826 C20.1107606,0.723120165 20.4481081,0.901058828 20.7108987,1.13496067 C21.0190217,1.41737549 21.1002521,1.7909254 21.333588,2.10452713 C21.4629122,2.26513973 21.655748,2.38780826 21.8025609,2.53871826 C21.9882631,2.42609886 22.2123945,2.33894876 22.4579264,2.35280961 C23.1712808,2.39473868 23.8811834,2.48327486 24.568995,2.63366509 C25.074326,2.75078927 25.5679212,2.92335685 25.9614167,3.19433647 C26.0817664,3.28599134 26.0815363,3.42425332 26.044718,3.54172402 C25.9917918,3.7288455 25.9333427,3.91544719 25.8679903,4.10048954 C26.0877494,4.20479244 26.3344319,4.27219082 26.5532706,4.37770654 C26.741274,4.46901489 26.8252657,4.63482531 26.8756608,4.79162618 C27.2772102,5.99734687 27.3938782,7.24343729 27.4511766,8.48173099 C27.4748784,9.14583896 27.5054836,9.80994694 27.4983501,10.4744014 C27.4953586,11.1211834 27.5107763,11.7683118 27.4755688,12.4149205 C27.4555488,12.8868824 27.5337877,13.3697598 27.3786906,13.8330587 C27.1633037,14.4883304 26.5330206,15.0639022 25.7036886,15.3267385 C25.3357359,15.4497536 24.9314251,15.5022515 24.5301057,15.4991329 C18.662191,15.4986131 12.7940463,15.4993061 6.92613158,15.4987863 C6.62030967,15.5006922 6.31356731,15.4876976 6.00866586,15.5076226 C5.78430442,15.5455667 5.57190892,15.631504 5.33788267,15.6334098 C4.78583847,15.6469242 4.23333403,15.6373948 3.68175005,15.6216281 C3.05675961,15.6141779 2.4306186,15.6342761 1.80700884,15.5959855 C1.42732024,15.5689569 1.03428502,15.522523 0.708213054,15.3634698 C0.389964976,15.2063224 0.249595253,14.9166306 0.219910508,14.6423591 C-0.0737153402,11.6459898 -0.0401186523,8.63194795 0.318859657,5.63956368 C0.386053033,5.21542167 0.618468477,4.80479399 0.998387188,4.48599444 C1.57988603,3.97764776 2.42233448,3.67738709 3.28043071,3.5356599 C3.83776755,3.44781677 4.3953345,3.35529559 4.96256625,3.31232696 C5.18416632,3.3015848 5.41059879,3.28876351 5.62920738,3.32740063 C6.0157994,3.40450161 6.41826932,3.34489995 6.81015397,3.33259845 C7.93081062,3.26364072 9.05629966,3.19364343 10.1576267,3.01587803 C10.7273897,2.91763925 11.3134908,2.80692571 11.8024837,2.55448498 C12.1020925,2.40981236 12.25811,2.15893097 12.4270139,1.93317238 C12.6893442,1.580587 12.8890835,1.18520625 13.3055903,0.914573156 C13.6790659,0.646538968 14.1620758,0.498574394 14.6374919,0.36447067 C14.6701681,0.282691654 14.6745403,0.190863523 14.7304581,0.11549515 L14.7304581,0.11549515 Z M4.12748145,3.74201331 C3.82948343,3.78446216 3.50180067,3.87819616 3.35199626,4.09286608 C3.25120619,4.23563283 3.35475763,4.42864517 3.54161044,4.49864246 C3.89552624,4.66497266 4.34562981,4.63673118 4.72462806,4.53745284 C4.9344923,4.46676251 5.15102986,4.3550094 5.21638232,4.17949639 C5.26148473,4.02408161 5.10937917,3.87958224 4.92989002,3.81790146 C4.68711943,3.716544 4.39510438,3.7231279 4.12748145,3.74201331 L4.12748145,3.74201331 Z M16.2098629,4.19474332 C15.436909,4.23286066 14.6687875,4.35293027 13.9489899,4.5701991 C12.1784905,5.0863425 10.7052987,6.14305906 9.91922829,7.44286027 C9.54092038,8.0588018 9.31886008,8.72880064 9.25764968,9.40555664 C9.21599899,10.0344927 9.29768956,10.6691464 9.51721861,11.2771179 C9.87573669,12.2319572 10.5720626,13.1169725 11.5316392,13.7987531 C12.8235009,14.7442363 14.5926196,15.3087194 16.393264,15.3535939 C17.625296,15.3833948 18.8706746,15.1884765 19.9740727,14.771958 C21.2056444,14.3102184 22.257727,13.5849495 22.980516,12.7037459 C23.3698694,12.2418331 23.6455463,11.7293282 23.8395327,11.2034822 C24.2861846,9.94474371 24.1232636,8.56714847 23.3788439,7.39053557 C22.7347539,6.34612051 21.6373388,5.47132761 20.3116503,4.90095363 C19.0722547,4.37666698 17.6310489,4.11902843 16.2098629,4.19474332 L16.2098629,4.19474332 Z M6.27536834,6.74461995 C6.20932553,6.80924617 6.24913531,6.89951495 6.23348753,6.97419028 C6.24085119,9.48646935 6.23003582,11.9990949 6.23901028,14.5115473 C6.19068627,14.6567397 6.40078063,14.7002281 6.54230093,14.7035201 C6.62491196,14.6042417 6.66702288,14.4912758 6.65091488,14.3732853 C6.64999442,12.0340936 6.64861373,9.69490189 6.6513751,7.35571018 C6.64608247,7.17084109 6.66725299,6.98337309 6.62905402,6.80023661 C6.59683801,6.6810333 6.37201634,6.65920246 6.27536834,6.74461995 L6.27536834,6.74461995 Z M24.0912777,8.5300707 C24.1455847,8.80468879 24.2031133,9.07982667 24.2212923,9.35773671 C24.2647839,9.89969595 24.2033434,10.4420017 24.0910476,10.9772038 C24.1886161,10.9836144 24.2873351,10.9905448 24.3855939,10.9964357 C24.703842,10.7199117 25.0273827,10.421557 25.1198887,10.0518188 C25.2791278,9.52579952 24.9259023,9.00965611 24.4769493,8.62519078 C24.3855939,8.53232309 24.2261247,8.54514438 24.0912777,8.5300707 L24.0912777,8.5300707 Z" id="Shape" fill="#F4C747"></path>
                </g>
                <g id="table-+-lamp-3" sketch:type="MSShapeGroup">
                    <path d="M0,96.2837838 C0,94.2313742 1.66446408,92.5675676 3.72163999,92.5675676 L254.27836,92.5675676 C256.333765,92.5675676 258,94.2355505 258,96.2837838 L258,100 L0,100 L0,96.2837838 Z" id="table" fill="#575259"></path>
                    <g id="lamp" transform="translate(127.747368, 46.500000) scale(-1, 1) translate(-127.747368, -46.500000) translate(2.247368, 0.000000)">
                        <path d="M234.915789,19.5945946 L37.0026316,92.2297297 L221.391211,92.2297297 L250.871053,27.3648649 L234.915789,19.5945946 Z" id="Path-950" fill-opacity="0.13524683" fill="#FFFFFF" transform="translate(143.936842, 55.912162) scale(-1, 1) translate(-143.936842, -55.912162) "></path>
                        <path d="M23.0774211,7.33108108 C26.4721579,4.97297297 29.928,2.7027027 33.3091579,0.331081081 C36.2218421,3.62162162 39.3042632,6.76351351 42.2033684,10.0675676 C43.1471053,11.1689189 44.3081053,12.0675676 45.5981053,12.7364865 C49.407,14.8108108 53.2091053,16.8918919 56.9772632,19.0405405 L57.6426316,19.4054054 C55.6465263,20.9391892 53.5553684,22.3513514 51.4098947,23.6689189 C45.6931579,27.4121622 39.9696316,31.1621622 34.3072105,34.9864865 C33.3159474,30.5202703 32.4333158,26.027027 31.5303158,21.5405405 C31.3402105,20.3648649 30.7495263,19.3175676 30.1113158,18.3310811 C28.6583684,16.0675676 27.1443158,13.8513514 25.6777895,11.6013514 C24.9037895,10.1216216 24.0007895,8.71621622 23.0774211,7.33108108 L23.0774211,7.33108108 Z" id="Shape-11" opacity="0.96" fill="#95CBC2"></path>
                        <path d="M5.805,42.8513514 C12.4179474,33.9391892 19.092,25.0810811 25.7185263,16.1756757 C26.7505263,17.3310811 28.0676842,18.1756757 29.5002632,18.7702703 C22.8262105,27.4662162 16.3218947,36.2905405 9.675,45 C8.48005263,44.1148649 7.14931579,43.4594595 5.805,42.8513514 L5.805,42.8513514 Z" id="Shape-10" opacity="0.96" fill="#95CBC2"></path>
                        <path d="M4.27736842,46.1554054 C5.83215789,45.3378378 8.22884211,46.7837838 7.59063158,48.5878378 C7.23757895,50.472973 4.29094737,50.8378378 3.40152632,49.1891892 C2.709,48.1824324 3.12994737,46.6148649 4.27736842,46.1554054 L4.27736842,46.1554054 Z" id="Shape-9" opacity="0.96" fill="#95CBC2"></path>
                        <path d="M4.80694737,53.1756757 C6.29384211,52.9662162 7.72642105,52.5 9.07073684,51.8310811 C12.8456842,61.1351351 16.4644737,70.5 20.2190526,79.8108108 C18.6167368,79.5945946 16.9940526,79.777027 15.5003684,80.3986486 C11.9087368,71.3310811 8.33747368,62.2635135 4.80694737,53.1756757 L4.80694737,53.1756757 Z" id="Shape-7" opacity="0.96" fill="#95CBC2"></path>
                        <path d="M23.5934211,83.527027 C27.4973684,85.0810811 31.9743228,88.0229231 32.1236912,92.7526529 C22.8424807,92.5769772 4.20529657,92.7526529 4.20529657,92.7526529 C4.43613868,87.8742745 9.37626316,85.1891892 13.2937895,83.4932432 C16.6749474,82.722973 20.2190526,82.6689189 23.5934211,83.527027 Z M22.9959474,87.1959459 C22.4188421,88.8513514 24.5439474,88.8513514 25.5080526,88.2162162 C25.5148421,87.8648649 25.5216316,87.1756757 25.5284211,86.8243243 C24.7951579,86.5135135 23.0231053,85.7837838 22.9959474,87.1959459 L22.9959474,87.1959459 Z" id="Shape-6" opacity="0.96" fill="#95CBC2"></path>
                        <path d="M25.6777895,11.6013514 C27.1443158,13.8513514 28.6583684,16.0675676 30.1113158,18.3310811 L29.5002632,18.7702703 C28.0676842,18.1756757 26.7505263,17.3310811 25.7185263,16.1756757 C25.2636316,14.6756757 25.3043684,13.1148649 25.6777895,11.6013514 L25.6777895,11.6013514 Z" id="Shape-12" opacity="0.96" fill="#969A8F"></path>
                        <path d="M0.210473684,47.222973 C0.631421053,44.5135135 3.40152632,43.3243243 5.805,42.8513514 C7.14931579,43.4594595 8.48005263,44.1148649 9.675,45 C11.0872105,47.1891892 10.7681053,49.9054054 9.07073684,51.8310811 C7.72642105,52.5 6.29384211,52.9662162 4.80694737,53.1756757 C2.13868421,52.5405405 -0.454894737,50.1824324 0.210473684,47.222973 L0.210473684,47.222973 Z M4.27736842,46.1554054 C3.12994737,46.6148649 2.709,48.1824324 3.40152632,49.1891892 C4.29094737,50.8378378 7.23757895,50.472973 7.59063158,48.5878378 C8.22884211,46.7837838 5.83215789,45.3378378 4.27736842,46.1554054 L4.27736842,46.1554054 Z" id="Shape-14" opacity="0.96" fill="#959589"></path>
                        <path d="M15.5003684,80.3986486 C16.9940526,79.777027 18.6167368,79.5945946 20.2190526,79.8108108 C21.7670526,80.6148649 23.0706316,81.8175676 23.5934211,83.527027 C20.2190526,82.6689189 16.6749474,82.722973 13.2937895,83.4932432 C13.8980526,82.3716216 14.577,81.2837838 15.5003684,80.3986486 L15.5003684,80.3986486 Z" id="Shape-13" opacity="0.96" fill="#959589"></path>
                        <path d="M22.9959474,87.1959459 C23.0231053,85.7837838 24.7951579,86.5135135 25.5284211,86.8243243 C25.5216316,87.1756757 25.5148421,87.8648649 25.5080526,88.2162162 C24.5439474,88.8513514 22.4188421,88.8513514 22.9959474,87.1959459 L22.9959474,87.1959459 Z" id="Shape-15" opacity="0.96" fill="#81AEA6"></path>
                    </g>
                </g>
            </g>
        </g>
    </g>
</svg>