<?xml version="1.0" encoding="UTF-8" standalone="no"?>
<svg width="60px" height="60px" viewBox="0 0 60 60" version="1.1" xmlns="http://www.w3.org/2000/svg" xmlns:xlink="http://www.w3.org/1999/xlink" xmlns:sketch="http://www.bohemiancoding.com/sketch/ns">
    <!-- Generator: Sketch 3.2.2 (9983) - http://www.bohemiancoding.com/sketch -->
    <title>github</title>
    <desc>Created with Sketch.</desc>
    <defs></defs>
    <g id="assets" stroke="none" stroke-width="1" fill="none" fill-rule="evenodd" sketch:type="MSPage">
        <g id="Desktop-HD" sketch:type="MSArtboardGroup" transform="translate(-1286.000000, -653.000000)" fill="#FFFFFF">
            <g id="github" sketch:type="MSLayerGroup" transform="translate(1286.000000, 653.000000)">
                <path d="M30.4979281,9 C18.0748949,9 8,18.8694041 8,31.0447816 C8,40.7842717 14.4463305,49.04599 23.3872126,51.9609354 C24.5129378,52.163926 24.9231714,51.4832308 24.9231714,50.8986178 C24.9231714,50.374902 24.9038338,48.9891527 24.8927837,47.1500576 C18.6343043,48.4816761 17.3138218,44.1945142 17.3138218,44.1945142 C16.2903097,41.6476585 14.8151263,40.9696698 14.8151263,40.9696698 C12.7722459,39.6028663 14.9698272,39.6299317 14.9698272,39.6299317 C17.2281838,39.7855578 18.4160656,41.9020734 18.4160656,41.9020734 C20.4230332,45.2703645 23.6828018,44.2973627 24.9646091,43.7330488 C25.1690353,42.3094079 25.7505448,41.3377595 26.3928297,40.7869782 C21.39682,40.2307839 16.1438964,38.3389113 16.1438964,29.8917949 C16.1438964,27.4856794 17.0209951,25.5166703 18.4602658,23.9766481 C18.2282145,23.4191006 17.4560913,21.1767308 18.6812671,18.1426976 C18.6812671,18.1426976 20.5694466,17.549965 24.8679211,20.4026599 C26.662175,19.9127759 28.5876485,19.6691871 30.5006906,19.6597142 C32.4123515,19.6691871 34.3364437,19.9127759 36.1334602,20.4026599 C40.4291722,17.549965 42.3145892,18.1426976 42.3145892,18.1426976 C43.5425274,21.1767308 42.7704042,23.4191006 42.5397342,23.9766481 C43.9817674,25.5166703 44.8519599,27.4856794 44.8519599,29.8917949 C44.8519599,38.3605637 39.5907486,40.2240176 34.5795451,40.7693857 C35.3861997,41.4500809 36.105835,42.7952321 36.105835,44.8508505 C36.105835,47.7982744 36.0782099,50.1759712 36.0782099,50.8986178 C36.0782099,51.4886439 36.4842997,52.1747522 37.6252187,51.9595821 C46.5591946,49.0378704 53,40.7815652 53,31.0447816 C53,18.8694041 42.9251051,9 30.4979281,9" id="Fill-50" sketch:type="MSShapeGroup"></path>
            </g>
        </g>
    </g>
</svg>