<?xml version="1.0" encoding="UTF-8" standalone="no"?>
<svg width="60px" height="60px" viewBox="0 0 60 60" version="1.1" xmlns="http://www.w3.org/2000/svg" xmlns:xlink="http://www.w3.org/1999/xlink" xmlns:sketch="http://www.bohemiancoding.com/sketch/ns">
    <!-- Generator: Sketch 3.2.2 (9983) - http://www.bohemiancoding.com/sketch -->
    <title>github-sel</title>
    <desc>Created with Sketch.</desc>
    <defs></defs>
    <g id="assets" stroke="none" stroke-width="1" fill="none" fill-rule="evenodd" sketch:type="MSPage">
        <g id="Desktop-HD" sketch:type="MSArtboardGroup" transform="translate(-1286.000000, -725.000000)" fill="#FF8383">
            <g id="github" sketch:type="MSLayerGroup" transform="translate(1286.000000, 653.000000)">
                <path d="M30.4979281,81 C18.0748949,81 8,90.8694041 8,103.044782 C8,112.784272 14.4463305,121.04599 23.3872126,123.960935 C24.5129378,124.163926 24.9231714,123.483231 24.9231714,122.898618 C24.9231714,122.374902 24.9038338,120.989153 24.8927837,119.150058 C18.6343043,120.481676 17.3138218,116.194514 17.3138218,116.194514 C16.2903097,113.647658 14.8151263,112.96967 14.8151263,112.96967 C12.7722459,111.602866 14.9698272,111.629932 14.9698272,111.629932 C17.2281838,111.785558 18.4160656,113.902073 18.4160656,113.902073 C20.4230332,117.270364 23.6828018,116.297363 24.9646091,115.733049 C25.1690353,114.309408 25.7505448,113.337759 26.3928297,112.786978 C21.39682,112.230784 16.1438964,110.338911 16.1438964,101.891795 C16.1438964,99.4856794 17.0209951,97.5166703 18.4602658,95.9766481 C18.2282145,95.4191006 17.4560913,93.1767308 18.6812671,90.1426976 C18.6812671,90.1426976 20.5694466,89.549965 24.8679211,92.4026599 C26.662175,91.9127759 28.5876485,91.6691871 30.5006906,91.6597142 C32.4123515,91.6691871 34.3364437,91.9127759 36.1334602,92.4026599 C40.4291722,89.549965 42.3145892,90.1426976 42.3145892,90.1426976 C43.5425274,93.1767308 42.7704042,95.4191006 42.5397342,95.9766481 C43.9817674,97.5166703 44.8519599,99.4856794 44.8519599,101.891795 C44.8519599,110.360564 39.5907486,112.224018 34.5795451,112.769386 C35.3861997,113.450081 36.105835,114.795232 36.105835,116.850851 C36.105835,119.798274 36.0782099,122.175971 36.0782099,122.898618 C36.0782099,123.488644 36.4842997,124.174752 37.6252187,123.959582 C46.5591946,121.03787 53,112.781565 53,103.044782 C53,90.8694041 42.9251051,81 30.4979281,81" id="Fill-51" sketch:type="MSShapeGroup"></path>
            </g>
        </g>
    </g>
</svg>