<?xml version="1.0" encoding="UTF-8" standalone="no"?>
<svg width="17px" height="29px" viewBox="0 0 17 29" version="1.1" xmlns="http://www.w3.org/2000/svg" xmlns:xlink="http://www.w3.org/1999/xlink" xmlns:sketch="http://www.bohemiancoding.com/sketch/ns">
    <!-- Generator: Sketch 3.2.2 (9983) - http://www.bohemiancoding.com/sketch -->
    <title>iphone-icon</title>
    <desc>Created with Sketch.</desc>
    <defs></defs>
    <g id="assets" stroke="none" stroke-width="1" fill="none" fill-rule="evenodd" sketch:type="MSPage">
        <g id="icons-black" sketch:type="MSArtboardGroup" transform="translate(-115.000000, -47.000000)" fill="#98BBE3">
            <path d="M117.10793,47.5 C116.006641,47.5 115.11387,48.3998975 115.11387,49.4912443 L115.11387,73.5087557 C115.11387,74.6084896 116.008383,75.5 117.10793,75.5 L129.119809,75.5 C130.221098,75.5 131.11387,74.6001025 131.11387,73.5087557 L131.11387,49.4912443 C131.11387,48.3915104 130.219356,47.5 129.119809,47.5 L117.10793,47.5 Z M116.785511,52.0470085 L116.785511,70.474359 L129.442228,70.474359 L129.442228,52.0470085 L116.785511,52.0470085 Z M122.940362,74.1816573 C123.599807,74.1816573 124.134392,73.6459297 124.134392,72.9850761 C124.134392,72.3242226 123.599807,71.7884949 122.940362,71.7884949 C122.280918,71.7884949 121.746332,72.3242226 121.746332,72.9850761 C121.746332,73.6459297 122.280918,74.1816573 122.940362,74.1816573 Z M120.845213,49.6538462 L120.845213,50.1324786 L125.382526,50.1324786 L125.382526,49.6538462 L120.845213,49.6538462 Z" id="iphone-icon" sketch:type="MSShapeGroup"></path>
        </g>
    </g>
</svg>