<?xml version="1.0" encoding="UTF-8" standalone="no"?>
<svg width="28px" height="28px" viewBox="0 0 28 28" version="1.1" xmlns="http://www.w3.org/2000/svg" xmlns:xlink="http://www.w3.org/1999/xlink" xmlns:sketch="http://www.bohemiancoding.com/sketch/ns">
    <!-- Generator: Sketch 3.2.2 (9983) - http://www.bohemiancoding.com/sketch -->
    <title>java-icon</title>
    <desc>Created with Sketch.</desc>
    <defs></defs>
    <g id="assets" stroke="none" stroke-width="1" fill="none" fill-rule="evenodd" sketch:type="MSPage">
        <g id="icons-black" sketch:type="MSArtboardGroup" transform="translate(-75.000000, -47.000000)" fill="#E3A398">
            <g id="java-icon" sketch:type="MSLayerGroup" transform="translate(75.000000, 47.000000)">
                <path d="M21.5104721,13.6475211 C22.3981072,14.9340973 22.9025641,16.4097591 22.9025641,17.9785969 C22.9025641,22.9800246 17.7756505,27.0344828 11.4512821,27.0344828 C5.12691361,27.0344828 0,22.9800246 0,17.9785969 C0,16.4097591 0.50445694,14.9340973 1.39209202,13.6475211 C3.33422218,14.6410528 7.11072881,15.3151011 11.4512821,15.3151011 C15.7918353,15.3151011 19.5683419,14.6410528 21.5104721,13.6475211 Z" id="Oval-41" sketch:type="MSShapeGroup"></path>
                <path d="M21.1889383,16.0929511 C21.1889383,16.0929511 23.6561894,12.4676445 26.3687525,14.1841558 C27.8169925,15.1006027 27.0775719,17.5112518 25.4395558,19.072607 C24.0095568,20.4356805 21.7588927,20.9587259 21.4469581,21.7814915 C20.7777128,23.5467078 21.1889383,16.0929511 21.1889383,16.0929511 Z M22.1071554,16.631707 C22.1071554,16.631707 23.7519895,14.0422024 25.5603649,15.2682818 C26.5258582,15.9228868 26.0329112,17.644779 24.9409004,18.7600327 C23.9875678,19.7336566 22.4871251,20.1072604 22.2791687,20.6949502 C21.8330051,21.955819 22.1071554,16.631707 22.1071554,16.631707 Z" id="Path-87" sketch:type="MSShapeGroup"></path>
                <path d="M11.2000001,13.5172417 C11.2000001,13.5172417 2.53494391,11.1336391 8.52339744,7.18784472 C10.1790661,5.87815661 9.81561699,6.45417949 12.4683734,4.19174582 C14.9036298,1.53814371 13.9850641,0.0482726986 13.9850641,0.0482726986 C13.9850641,0.0482726986 16.1426362,3.08865481 11.8446875,6.41947102 C4.4661859,10.6513111 11.2000001,13.5172417 11.2000001,13.5172417 Z" id="Path-90" sketch:type="MSShapeGroup"></path>
                <path d="M13.3432566,15.1381867 C13.3432566,15.1381867 14.3329614,14.4231629 13.8732203,13.004352 C13.5261789,11.9333446 12.5030092,11.5760626 12.3536337,9.5646707 C12.2042583,7.55327883 17.6208072,5.54005054 17.6208072,5.54005054 C17.6208072,5.54005054 14.1953403,7.4246195 13.8607949,9.52830262 C13.6254646,10.6126367 15.4495563,10.7963555 15.233429,12.6314834 C15.0173018,14.4666112 13.3432566,15.1381867 13.3432566,15.1381867 Z" id="Path-90" sketch:type="MSShapeGroup"></path>
            </g>
        </g>
    </g>
</svg>