<?xml version="1.0" encoding="UTF-8" standalone="no"?>
<svg width="29px" height="28px" viewBox="0 0 29 28" version="1.1" xmlns="http://www.w3.org/2000/svg" xmlns:xlink="http://www.w3.org/1999/xlink" xmlns:sketch="http://www.bohemiancoding.com/sketch/ns">
    <!-- Generator: Sketch 3.2.2 (9983) - http://www.bohemiancoding.com/sketch -->
    <title>java-icon</title>
    <desc>Created with Sketch.</desc>
    <defs></defs>
    <g id="assets" stroke="none" stroke-width="1" fill="none" fill-rule="evenodd" sketch:type="MSPage">
        <g id="512" sketch:type="MSArtboardGroup" transform="translate(-190.000000, -256.000000)" fill="#E3A398">
            <g id="java-icon" sketch:type="MSLayerGroup" transform="translate(190.000000, 256.000000)">
                <path d="M23.0469344,14.1349325 C23.997972,15.467458 24.5384615,16.9958219 24.5384615,18.6206897 C24.5384615,23.8007397 19.0453398,28 12.2692308,28 C5.49312172,28 0,23.8007397 0,18.6206897 C0,16.9958219 0.540489579,15.467458 1.49152717,14.1349325 C3.5723809,15.1639475 7.61863801,15.862069 12.2692308,15.862069 C16.9198235,15.862069 20.9660806,15.1639475 23.0469344,14.1349325 Z" id="Oval-41" sketch:type="MSShapeGroup"></path>
                <path d="M22.7024339,16.6676994 C22.7024339,16.6676994 25.3459172,12.9129176 28.2522348,14.6907328 C29.8039205,15.6399099 29.0116842,18.1366537 27.2566669,19.7537716 C25.7245251,21.1655263 23.3130994,21.7072518 22.9788837,22.5594019 C22.2618352,24.3876616 22.7024339,16.6676994 22.7024339,16.6676994 Z M23.686238,17.2256966 C23.686238,17.2256966 25.4485602,14.5437096 27.3861053,15.8135776 C28.4205624,16.4915613 27.8924048,18.2749497 26.7223933,19.4300339 C25.7009655,20.4384301 24.0933483,20.8253769 23.8705379,21.4340556 C23.3925055,22.7399554 23.686238,17.2256966 23.686238,17.2256966 Z" id="Path-87" sketch:type="MSShapeGroup"></path>
                <path d="M12.0000001,14.0000003 C12.0000001,14.0000003 2.71601133,11.5312691 9.13221154,7.44455346 C10.9061422,6.08809077 10.5167325,6.6846859 13.3589715,4.34145103 C15.9681748,1.59307742 14.9839973,0.0499967236 14.9839973,0.0499967236 C14.9839973,0.0499967236 17.2956817,3.19896392 12.6907366,6.64873784 C4.78519918,11.0317151 12.0000001,14.0000003 12.0000001,14.0000003 Z" id="Path-90" sketch:type="MSShapeGroup"></path>
                <path d="M14.2963464,15.6788362 C14.2963464,15.6788362 15.3567444,14.9382759 14.8641646,13.4687931 C14.4923345,12.3595355 13.3960813,11.9894934 13.2360362,9.90626608 C13.075991,7.82303879 18.8794363,5.73790948 18.8794363,5.73790948 C18.8794363,5.73790948 15.2092932,7.68978448 14.8508516,9.86859914 C14.5987121,10.9916595 16.5530961,11.1819397 16.3215311,13.0826078 C16.0899662,14.9832759 14.2963464,15.6788362 14.2963464,15.6788362 Z" id="Path-90" sketch:type="MSShapeGroup"></path>
            </g>
        </g>
    </g>
</svg>