<?xml version="1.0" encoding="UTF-8" standalone="no"?>
<svg width="103px" height="64px" viewBox="0 0 103 64" version="1.1" xmlns="http://www.w3.org/2000/svg" xmlns:xlink="http://www.w3.org/1999/xlink" xmlns:sketch="http://www.bohemiancoding.com/sketch/ns">
    <!-- Generator: Sketch 3.2.2 (9983) - http://www.bohemiancoding.com/sketch -->
    <title>minibizi-logo</title>
    <desc>Created with Sketch.</desc>
    <defs></defs>
    <g id="assets" stroke="none" stroke-width="1" fill="none" fill-rule="evenodd" sketch:type="MSPage">
        <g id="minibizi-logo" sketch:type="MSArtboardGroup">
            <g sketch:type="MSLayerGroup" transform="translate(3.159894, 4.000000)">
                <g id="green" transform="translate(0.000000, 10.984240)" sketch:type="MSShapeGroup">
                    <path d="M0.334962265,9.37664594 C0.334962265,28.7721678 15.9354342,44.49517 35.1799464,44.49517 C54.4244585,44.49517 70.0249305,28.7721678 70.0249305,9.37664594" id="Stroke-3" stroke="#47B678" stroke-width="3"></path>
                    <path d="M0.334962265,5.98891934 C0.334962265,25.3844412 15.9354342,41.1074435 35.1799464,41.1074435 C54.4244585,41.1074435 70.0249305,25.3844412 70.0249305,5.98891934" id="Stroke-3-2" stroke="#59E496" stroke-width="4"></path>
                    <path d="M69.8930836,12.2087041 C73.2626424,12.2087041 75.9936729,9.47767357 75.9936729,6.10811473 C75.9936729,2.73855589 73.2626424,0.00752539802 69.8930836,0.00752539802 C66.5235248,0.00752539802 63.7924943,2.73855589 63.7924943,6.10811473 C63.7924943,9.47767357 66.5235248,12.2087041 69.8930836,12.2087041 L69.8930836,12.2087041 L69.8930836,12.2087041 Z" id="path-9" fill="#59E496"></path>
                </g>
                <g id="blue" transform="translate(65.146807, 22.274907) scale(1, -1) translate(-65.146807, -22.274907) translate(31.646807, 0.774907)" sketch:type="MSShapeGroup">
                    <path d="M0.00766677008,5.018143 C0.00766677008,24.4136649 13.6383821,40.1366671 30.4530317,40.1366671 C47.2676812,40.1366671 60.8983966,24.4136649 60.8983966,5.018143" id="Stroke-3" stroke="#279EB3" stroke-width="3"></path>
                    <path d="M0.340811326,7.67841445 C0.340811326,27.0739363 13.9715267,42.7969386 30.7861762,42.7969386 C47.6008257,42.7969386 61.2315411,27.0739363 61.2315411,7.67841445" id="Stroke-3-2" stroke="#2FB9D2" stroke-width="4"></path>
                    <path d="M60.783197,10.6835567 C63.7273065,10.6835567 66.1135099,8.29390505 66.1135099,5.34554106 C66.1135099,2.39717708 63.7273065,0.00752539802 60.783197,0.00752539802 C57.8390875,0.00752539802 55.4528841,2.39717708 55.4528841,5.34554106 C55.4528841,8.29390505 57.8390875,10.6835567 60.783197,10.6835567 L60.783197,10.6835567 L60.783197,10.6835567 Z" id="path-9" fill="#2FB9D2"></path>
                </g>
            </g>
        </g>
    </g>
</svg>