<?xml version="1.0" encoding="UTF-8" standalone="no"?>
<svg width="68px" height="64px" viewBox="0 0 68 64" version="1.1" xmlns="http://www.w3.org/2000/svg" xmlns:xlink="http://www.w3.org/1999/xlink" xmlns:sketch="http://www.bohemiancoding.com/sketch/ns">
    <!-- Generator: Sketch 3.2.2 (9983) - http://www.bohemiancoding.com/sketch -->
    <title>rigibo-logo</title>
    <desc>Created with Sketch.</desc>
    <defs>
        <linearGradient x1="50%" y1="0%" x2="50%" y2="100%" id="linearGradient-1">
            <stop stop-color="#FBDA61" offset="0%"></stop>
            <stop stop-color="#F76B1C" offset="100%"></stop>
        </linearGradient>
    </defs>
    <g id="assets" stroke="none" stroke-width="1" fill="none" fill-rule="evenodd" sketch:type="MSPage">
        <g id="rigibo-logo" sketch:type="MSArtboardGroup" fill="url(#linearGradient-1)">
            <g sketch:type="MSLayerGroup" transform="translate(3.154930, 2.604027)" id="Rectangle-221">
                <path d="M24.3235525,0 C23.3501027,0 22.5609658,0.795295995 22.5609658,1.77085306 L22.5609658,15.9375645 C22.5609658,16.9155796 23.3525493,17.7084176 24.3235525,17.7084176 L38.4241336,17.7084176 C39.3975834,17.7084176 40.1867203,16.9131216 40.1867203,15.9375645 L40.1867203,1.77085306 C40.1867203,0.79283792 39.3951368,0 38.4241336,0 L24.3235525,0 Z M34.8990052,20.5417644 C33.9255555,20.5417644 33.1364185,21.3370604 33.1364185,22.3126174 L33.1364185,36.4793289 C33.1364185,37.457344 33.9280021,38.2501819 34.8990052,38.2501819 L48.9995863,38.2501819 C49.9730361,38.2501819 50.762173,37.4548859 50.762173,36.4793289 L50.762173,22.3126174 C50.762173,21.3346023 49.9705895,20.5417644 48.9995863,20.5417644 L34.8990052,20.5417644 L34.8990052,20.5417644 Z M24.3235525,41.0835287 C23.3501027,41.0835287 22.5609658,41.8788247 22.5609658,42.8543818 L22.5609658,57.0210932 C22.5609658,57.9991084 23.3525493,58.7919463 24.3235525,58.7919463 L38.4241336,58.7919463 C39.3975834,58.7919463 40.1867203,57.9966503 40.1867203,57.0210932 L40.1867203,42.8543818 C40.1867203,41.8763667 39.3951368,41.0835287 38.4241336,41.0835287 L24.3235525,41.0835287 L24.3235525,41.0835287 Z M45.826973,41.0835287 C44.8535233,41.0835287 44.0643863,41.8788247 44.0643863,42.8543818 L44.0643863,57.0210932 C44.0643863,57.9991084 44.8559699,58.7919463 45.826973,58.7919463 L59.9275541,58.7919463 C60.9010039,58.7919463 61.6901408,57.9966503 61.6901408,57.0210932 L61.6901408,42.8543818 C61.6901408,41.8763667 60.8985573,41.0835287 59.9275541,41.0835287 L45.826973,41.0835287 L45.826973,41.0835287 Z M1.7625867,41.0835287 C0.789136947,41.0835287 0,41.8788247 0,42.8543818 L0,57.0210932 C0,57.9991084 0.791583547,58.7919463 1.7625867,58.7919463 L15.8631678,58.7919463 C16.8366176,58.7919463 17.6257545,57.9966503 17.6257545,57.0210932 L17.6257545,42.8543818 C17.6257545,41.8763667 16.834171,41.0835287 15.8631678,41.0835287 L1.7625867,41.0835287 L1.7625867,41.0835287 Z M13.7480998,20.5417644 C12.77465,20.5417644 11.9855131,21.3370604 11.9855131,22.3126174 L11.9855131,36.4793289 C11.9855131,37.457344 12.7770966,38.2501819 13.7480998,38.2501819 L27.8486809,38.2501819 C28.8221307,38.2501819 29.6112676,37.4548859 29.6112676,36.4793289 L29.6112676,22.3126174 C29.6112676,21.3346023 28.8196841,20.5417644 27.8486809,20.5417644 L13.7480998,20.5417644 L13.7480998,20.5417644 Z" sketch:type="MSShapeGroup"></path>
            </g>
        </g>
    </g>
</svg>