<?xml version="1.0" encoding="UTF-8" standalone="no"?>
<svg width="60px" height="60px" viewBox="0 0 60 60" version="1.1" xmlns="http://www.w3.org/2000/svg" xmlns:xlink="http://www.w3.org/1999/xlink" xmlns:sketch="http://www.bohemiancoding.com/sketch/ns">
    <!-- Generator: Sketch 3.2.2 (9983) - http://www.bohemiancoding.com/sketch -->
    <title>twitter</title>
    <desc>Created with Sketch.</desc>
    <defs></defs>
    <g id="assets" stroke="none" stroke-width="1" fill="none" fill-rule="evenodd" sketch:type="MSPage">
        <g id="Desktop-HD" sketch:type="MSArtboardGroup" transform="translate(-1212.000000, -653.000000)" fill="#FFFFFF">
            <g id="twitter" sketch:type="MSLayerGroup" transform="translate(1212.000000, 653.000000)">
                <path d="M50.1084,28.4496905 C53.0290667,28.2008416 55.0096889,26.829487 55.7723556,24.9687892 C54.7184889,25.6371605 51.4482667,26.3658045 49.6421333,25.6717725 C49.5537333,25.2337507 49.4549333,24.8172122 49.3578667,24.4412533 C47.9816,19.22199 43.2698222,15.0172188 38.3327111,15.5250616 C38.7319556,15.3585655 39.1369778,15.2034079 39.5414222,15.0643628 C40.0845333,14.8632547 43.2732889,14.3273642 42.7712,13.1648756 C42.3476889,12.1426256 38.4523111,13.9376799 37.7191111,14.1722065 C38.6868889,13.7962477 40.2884889,13.1493598 40.4595111,12 C38.9763556,12.2100595 37.5203556,12.9345262 36.3954222,13.9878077 C36.8016,13.5360603 37.1095556,12.9858476 37.1748444,12.3932649 C33.2182222,15.00409 30.9071111,20.2675136 29.0368444,25.3727958 C27.5681333,23.9029758 26.2664,22.7452613 25.0987111,22.1025507 C21.8227111,20.2878034 17.9059556,18.3948806 11.7572444,16.0370817 C11.5683111,18.1382738 12.7631556,20.9323043 16.2061333,22.7900183 C15.4602222,22.6867788 14.0960889,22.9171282 13.0052444,23.1868637 C13.4495556,25.5941937 14.9003556,27.5772273 18.8286667,28.5362207 C17.0335111,28.6585565 16.1056,29.0804659 15.2649333,29.9899282 C16.0824889,31.6638401 18.0775556,33.6343418 21.6667111,33.2297385 C17.6765778,35.0062931 20.0396889,38.2962312 23.2868,37.8050977 C17.7476444,43.7142156 9.01453333,43.2803711 4,38.3380044 C17.0930222,56.7653577 45.5543556,49.2360363 49.7958222,31.4866024 C52.9730222,31.5146501 54.8415556,30.3497745 56,29.0655469 C54.1690222,29.3866038 51.5158667,29.0548052 50.1084,28.4496905 L50.1084,28.4496905 Z" id="Twitter__x28_alt_x29_" sketch:type="MSShapeGroup"></path>
            </g>
        </g>
    </g>
</svg>