<?xml version="1.0" encoding="UTF-8" standalone="no"?>
<svg width="60px" height="60px" viewBox="0 0 60 60" version="1.1" xmlns="http://www.w3.org/2000/svg" xmlns:xlink="http://www.w3.org/1999/xlink" xmlns:sketch="http://www.bohemiancoding.com/sketch/ns">
    <!-- Generator: Sketch 3.3.2 (12043) - http://www.bohemiancoding.com/sketch -->
    <title>behance-sel copy</title>
    <desc>Created with Sketch.</desc>
    <defs></defs>
    <g id="assets" stroke="none" stroke-width="1" fill="none" fill-rule="evenodd" sketch:type="MSPage">
        <g id="icons-white" sketch:type="MSArtboardGroup" transform="translate(-290.000000, -296.000000)" fill="#FF8383">
            <g id="behance" sketch:type="MSLayerGroup" transform="translate(290.000000, 224.000000)">
                <g id="behance6-copy" transform="translate(7.000000, 79.000000)" sketch:type="MSShapeGroup">
                    <g id="Group">
                        <path d="M18.4643061,18.1789184 C18.4643061,16.0145714 16.9918367,16.0145714 16.9918367,16.0145714 L16.2121837,16.0145714 L10.9339184,16.0145714 L10.9339184,20.6586939 L16.6163265,20.6586939 C17.5982857,20.6582245 18.4643061,20.3442041 18.4643061,18.1789184 L18.4643061,18.1789184 Z" id="Shape"></path>
                        <path d="M16.9923061,23.8664898 L10.9339184,23.8664898 L10.9339184,29.4287347 L16.712551,29.4287347 C17.5818571,29.4038571 19.1862245,29.1316122 19.1862245,26.7250612 C19.1862245,23.8373878 16.9923061,23.8664898 16.9923061,23.8664898 L16.9923061,23.8664898 Z" id="Shape"></path>
                        <path d="M32.5018163,20.6582245 C29.2869796,20.6582245 28.8387143,23.8664898 28.8387143,23.8664898 L35.6753469,23.8664898 C35.6758163,23.8664898 35.7166531,20.6582245 32.5018163,20.6582245 L32.5018163,20.6582245 Z" id="Shape"></path>
                        <path d="M22.9413265,0 C10.2711429,0 0,10.2716122 0,22.9413265 C0,35.6110408 10.2711429,45.8826531 22.9413265,45.8826531 C35.6115102,45.8826531 45.8826531,35.6110408 45.8826531,22.9413265 C45.8826531,10.2716122 35.6115102,0 22.9413265,0 L22.9413265,0 Z M27.9431224,13.540898 L36.530102,13.540898 L36.530102,16.1037551 L27.9431224,16.1037551 L27.9431224,13.540898 L27.9431224,13.540898 Z M23.6031633,26.9832245 C23.6031633,33.335449 16.9923061,33.1265714 16.9923061,33.1265714 L10.9339184,33.1265714 L10.7560204,33.1265714 L6.16212245,33.1265714 L6.16212245,12.3148571 L10.7560204,12.3148571 L10.9339184,12.3148571 L16.9918367,12.3148571 C20.2831837,12.3148571 22.8812449,14.1318571 22.8812449,17.8559796 C22.8812449,21.5805714 19.7053673,21.8166735 19.7053673,21.8166735 C23.8918367,21.8166735 23.6031633,26.9832245 23.6031633,26.9832245 L23.6031633,26.9832245 Z M32.5426531,30.2656531 C36.0020408,30.2656531 35.8795306,28.0266735 35.8795306,28.0266735 L39.5421633,28.0266735 C39.5421633,33.9686531 32.4206122,33.5616939 32.4206122,33.5616939 C23.8744694,33.5616939 24.4241224,25.6055714 24.4241224,25.6055714 C24.4241224,25.6055714 24.417551,17.6100204 32.4196735,17.6100204 C40.8437755,17.6100204 39.6642041,26.6433878 39.6642041,26.6433878 L28.8800204,26.6433878 C28.8800204,30.5106735 32.5426531,30.2656531 32.5426531,30.2656531 L32.5426531,30.2656531 Z" id="Shape"></path>
                    </g>
                </g>
            </g>
        </g>
    </g>
</svg>