<?xml version="1.0" encoding="UTF-8" standalone="no"?>
<svg width="32px" height="32px" viewBox="0 0 32 32" version="1.1" xmlns="http://www.w3.org/2000/svg" xmlns:xlink="http://www.w3.org/1999/xlink" xmlns:sketch="http://www.bohemiancoding.com/sketch/ns">
    <!-- Generator: Sketch 3.2.2 (9983) - http://www.bohemiancoding.com/sketch -->
    <title>clock-icon</title>
    <desc>Created with Sketch.</desc>
    <defs></defs>
    <g id="assets" stroke="none" stroke-width="1" fill="none" fill-rule="evenodd" sketch:type="MSPage">
        <g id="icons-black" sketch:type="MSArtboardGroup" transform="translate(-172.000000, -47.000000)" fill="#9B9B9B">
            <g id="clock-icon" sketch:type="MSLayerGroup" transform="translate(172.000000, 47.000000)">
                <path d="M31.7986014,15.9211045 C31.7986014,7.1285302 24.6806516,0 15.8993007,0 C7.11794982,0 0,7.1285302 0,15.9211045 C0,24.7136789 7.11794982,31.8422091 15.8993007,31.8422091 C24.6806516,31.8422091 31.7986014,24.7136789 31.7986014,15.9211045 L31.7986014,15.9211045 Z M2.46153846,15.9211045 C2.46153846,8.48718256 8.47823911,2.46153846 15.8993007,2.46153846 C23.3203623,2.46153846 29.3370629,8.48718256 29.3370629,15.9211045 C29.3370629,23.3550265 23.3203623,29.3806706 15.8993007,29.3806706 C8.47823911,29.3806706 2.46153846,23.3550265 2.46153846,15.9211045 L2.46153846,15.9211045 Z" id="Oval-47" sketch:type="MSShapeGroup"></path>
                <path d="M14.7692308,17.2205995 L14.7692308,16.6272189 L14.7692308,9.28205128 L14.7692308,8.66666667 L16.9999999,8.66666667 L16.9999999,9.28205128 L16.9999999,16.0868924 L17.0196533,16.0769043 L21.5703125,19.5029297 L19.9996338,21.1364746 L14.7842308,17.2426036 L14.7692308,17.2426036 L14.7692308,17.2314044 L14.7606201,17.2249756 L14.7692308,17.2205995 Z" id="Line" sketch:type="MSShapeGroup"></path>
            </g>
        </g>
    </g>
</svg>