<?xml version="1.0" encoding="UTF-8" standalone="no"?>
<svg width="80px" height="160px" viewBox="0 0 80 160" version="1.1" xmlns="http://www.w3.org/2000/svg" xmlns:xlink="http://www.w3.org/1999/xlink" xmlns:sketch="http://www.bohemiancoding.com/sketch/ns">
    <!-- Generator: Sketch 3.2.2 (9983) - http://www.bohemiancoding.com/sketch -->
    <title>compass</title>
    <desc>Created with Sketch.</desc>
    <defs>
        <path d="M18.4311432,0 L2.89583761,85.8631925 L4.62009754,88.1722925 L1,110.278131 C2.60748038,111.633785 2.82161042,118 2.82161042,118 C2.82161042,118 5.60666921,112.31418 7.54594853,111.292652 L11.5844548,89.2045733 L14.1583937,87.359903 L26.3018246,22.5978153 C26.3018246,22.5978153 27.7896522,23.3816915 29,23.3816915 L29,20.0840473 C29,20.0840473 26.76648,19.7097488 26.76648,17.7167123 C26.76648,17.3061681 23.2774601,17.7167123 23.2774601,17.7167123 L10.7848535,85.0092411 C10.7848535,85.0092411 10.8423198,85.6925956 8.76176933,85.3509184 C6.68121891,85.0092411 7.10646886,84.3906459 7.10646886,84.3906459 L20.3264335,11.9202817 C20.3264335,11.9202817 21.8914299,13.2587188 23.9268283,14.1530239 C25.9622267,15.0473289 29,15.1364936 29,15.1364936 L29,11.9202817 C29,11.9202817 23.9405107,12.4477792 20.9727915,9.53724027 C18.0050723,6.62670139 18.4311432,0 18.4311432,0 Z M6.20403267,88.6678959 L5.85673632,90.6375114 L9.79596733,91.3321041 L10.1432637,89.3624886 L6.20403267,88.6678959 Z M4.26599565,107.262948 C4.26599565,107.262948 3.74359945,112.109838 3.93886334,112.153204 C4.144827,112.198946 5.26082642,107.444676 5.26082642,107.444676 L7.74855689,94.1462147 L6.62479936,93.9023692 L4.26599565,107.262948 Z" id="path-1"></path>
    </defs>
    <g id="assets" stroke="none" stroke-width="1" fill="none" fill-rule="evenodd" sketch:type="MSPage">
        <g id="Group-7" sketch:type="MSLayerGroup">
            <g id="compass">
                <g id="compass-left" transform="translate(11.000000, 38.000000)">
                    <g id="left">
                        <use fill="#FFFFFF" fill-rule="evenodd" sketch:type="MSShapeGroup" xlink:href="#path-1"></use>
                        <use fill="none" xlink:href="#path-1"></use>
                    </g>
                </g>
            </g>
        </g>
    </g>
</svg>