<?xml version="1.0" encoding="UTF-8" standalone="no"?>
<svg width="35px" height="61px" viewBox="0 0 35 61" version="1.1" xmlns="http://www.w3.org/2000/svg" xmlns:xlink="http://www.w3.org/1999/xlink" xmlns:sketch="http://www.bohemiancoding.com/sketch/ns">
    <!-- Generator: Sketch 3.0.2 (7799) - http://www.bohemiancoding.com/sketch -->
    <title>guitar-icon</title>
    <description>Created with Sketch.</description>
    <defs></defs>
    <g id="Sections" stroke="none" stroke-width="1" fill="none" fill-rule="evenodd" sketch:type="MSPage">
        <g id="Index" sketch:type="MSArtboardGroup" transform="translate(-500.000000, -212.000000)" fill="#6D6B64">
            <g id="guitar-icon" sketch:type="MSLayerGroup" transform="translate(481.000000, 212.000000)">
                <path d="M46.8125,30.0431155 C47.1513691,32.5237349 47.6260727,35.2402732 48.2680766,38.2100739 C48.2680766,38.2100739 43.0619499,39.8991417 43.0619495,42.2319383 L37.0296786,42.2386324 L36.714942,42.2419788 L36.4006853,42.2453251 L30.497926,42.245324 C30.497926,42.245324 30.7663821,40.0304464 25.1147889,38.3163197 C25.1147889,38.3163197 25.9690507,35.6407196 26.5121888,31.2801413 L26.5121888,31.2801413 L27.0125,31.2801413 L31.55,31.2801413 L32.375,31.2801413 L32.375,29.4526107 L31.55,29.4526107 L27.0125,29.4526107 L26.7097015,29.4526107 C26.861652,27.7969192 26.957938,25.9557634 26.9504728,23.9700188 L27.0125,23.9700188 L31.55,23.9700188 L32.375,23.9700188 L32.375,22.1424881 L31.55,22.1424881 L27.0125,22.1424881 L26.9143562,22.1424881 L26.9143562,22.1424881 C26.8321993,19.8497259 26.6048873,17.3944751 26.1669762,14.8323656 L26.1669762,14.8323656 L31.4044118,14.8323656 L32.375,14.8323656 L32.375,13.004835 L31.4044118,13.004835 L25.8216256,13.004835 C25.40222,10.9810241 24.846856,8.90081468 24.125,6.79016144 C24.125,6.79016144 25.7941593,6.65547181 28.8378921,5.56540602 C31.8816249,4.47492194 36.4313913,0.212120536 36.4313913,0.212120536 C36.4313913,0.212120536 41.0915074,4.43267457 44.1481943,5.49513317 C47.2048812,6.55717348 48.875,6.67638635 48.875,6.67638635 C48.875,6.67638635 47.4984484,8.42972676 46.6837711,13.004835 L45.9875,13.004835 L41.45,13.004835 L40.625,13.004835 L40.625,14.8323656 L41.45,14.8323656 L45.9875,14.8323656 L46.4111321,14.8323656 L46.4111321,14.8323656 C46.1671882,16.8289586 46.0374582,19.2465058 46.1262287,22.1424881 L46.1262287,22.1424881 L45.9875,22.1424881 L41.45,22.1424881 L40.625,22.1424881 L40.625,23.9700188 L41.45,23.9700188 L45.9875,23.9700188 L46.2084248,23.9700188 C46.3072714,25.6499032 46.4768291,27.4743643 46.7338053,29.4526107 L45.9875,29.4526107 L41.45,29.4526107 L40.625,29.4526107 L40.625,31.2801413 L41.45,31.2801413 L45.9875,31.2801413 L46.8125,31.2801413 L46.8125,30.0431155 Z" id="Stroke-2" sketch:type="MSShapeGroup"></path>
                <path d="M30.5807626,60.3814793 L36.9905626,60.3814793 L36.8971068,43.4177945 L37.3023109,60.3814793 L40.3544875,60.3814793 L39.8915993,43.4177945 L40.6696971,60.3814793 L43.383992,60.3814793 L42.5528158,43.4177945 L31.0829697,43.4177945 L30.5807626,60.3814793 Z" id="Rectangle-51" sketch:type="MSShapeGroup"></path>
                <path d="M21.7407496,16.5664888 C22.2908865,16.4190801 22.4192068,15.1140816 22.027361,13.6516931 C21.6355152,12.1893047 20.8718873,11.123303 20.3217504,11.2707117 C19.7716135,11.4181205 19.6432932,12.723119 20.035139,14.1855074 C20.4269848,15.6478959 21.1906127,16.7138976 21.7407496,16.5664888 Z M51.2592504,16.5664888 C50.7091135,16.4190801 50.5807932,15.1140816 50.972639,13.6516931 C51.3644848,12.1893047 52.1281127,11.123303 52.6782496,11.2707117 C53.2283865,11.4181205 53.3567068,12.723119 52.964861,14.1855074 C52.5730152,15.6478959 51.8093873,16.7138976 51.2592504,16.5664888 Z M23.8032496,27.7184874 C24.3533865,27.8658962 24.4817068,29.1708946 24.089861,30.6332831 C23.6980152,32.0956716 22.9343873,33.1616733 22.3842504,33.0142645 C21.8341135,32.8668558 21.7057932,31.5618573 22.097639,30.0994688 C22.4894848,28.6370804 23.2531127,27.5710787 23.8032496,27.7184874 Z M49.1967504,27.7184874 C48.6466135,27.8658962 48.5182932,29.1708946 48.910139,30.6332831 C49.3019848,32.0956716 50.0656127,33.1616733 50.6157496,33.0142645 C51.1658865,32.8668558 51.2942068,31.5618573 50.902361,30.0994688 C50.5105152,28.6370804 49.7468873,27.5710787 49.1967504,27.7184874 Z M23.09375,20.3149575 C23.6632936,20.3149575 24.125,21.5422775 24.125,23.0562534 C24.125,24.5702294 23.6632936,25.7975494 23.09375,25.7975494 C22.5242064,25.7975494 22.0625,24.5702294 22.0625,23.0562534 C22.0625,21.5422775 22.5242064,20.3149575 23.09375,20.3149575 Z M49.90625,20.3149575 C49.3367064,20.3149575 48.875,21.5422775 48.875,23.0562534 C48.875,24.5702294 49.3367064,25.7975494 49.90625,25.7975494 C50.4757936,25.7975494 50.9375,24.5702294 50.9375,23.0562534 C50.9375,21.5422775 50.4757936,20.3149575 49.90625,20.3149575 Z" id="Oval-9" sketch:type="MSShapeGroup"></path>
            </g>
        </g>
    </g>
</svg>