<?xml version="1.0" encoding="UTF-8" standalone="no"?>
<svg width="85px" height="58px" viewBox="0 0 85 58" version="1.1" xmlns="http://www.w3.org/2000/svg" xmlns:xlink="http://www.w3.org/1999/xlink" xmlns:sketch="http://www.bohemiancoding.com/sketch/ns">
    <!-- Generator: Sketch 3.2.2 (9983) - http://www.bohemiancoding.com/sketch -->
    <title>Screen Shot 2015-04-05 at 8</title>
    <desc>Created with Sketch.</desc>
    <defs></defs>
    <g id="assets" stroke="none" stroke-width="1" fill="none" fill-rule="evenodd" sketch:type="MSPage">
        <g id="icons-black" sketch:type="MSArtboardGroup" transform="translate(-118.000000, -380.000000)">
            <g id="Screen-Shot-2015-04-05-at-8" sketch:type="MSLayerGroup" transform="translate(118.000000, 380.000000)">
                <g id="#ffffffff" transform="translate(7.000000, 6.000000)" fill="#FFFFFF" sketch:type="MSShapeGroup">
                    <path d="M0.37,1.04945455 C24.12,0.860363636 47.88,0.898181818 71.64,1.03054545 C71.57,3.20509091 72.13,5.62545455 70.8,7.56363636 C69.77,9.87054545 67.9,11.7141818 66.18,13.5767273 C59.01,19.0414545 51.68,24.3170909 44.57,29.848 C42.02,31.8429091 39.37,34.008 36.04,34.6698182 C32.21,33.8850909 29.33,31.2283636 26.41,28.9592727 C19.78,23.9010909 13.04,18.9752727 6.36,13.9643636 C4.29,12.4989091 3.15,10.2487273 1.39,8.50909091 L1.51,7.64872727 C-0.06,5.77672727 0.46,3.28072727 0.37,1.04945455 L0.37,1.04945455 Z" id="Shape"></path>
                    <path d="M0.52,16.8858182 C6.56,22.464 13.72,26.8130909 20.09,32.0414545 C24.84,35.6436364 29.54,40.1912727 35.98,40.6450909 C40.07,40.352 43.83,38.4232727 46.93,35.9745455 C52.78,31.3796364 58.7,26.8792727 64.7,22.464 C67.11,20.7810909 69.53,19.0698182 71.5,16.9047273 C71.91,28.4203636 71.72,39.9643636 71.61,51.4894545 C53.4,51.9149091 35.17,51.5556364 16.95,51.6785455 C11.43,51.5934545 5.9,51.8770909 0.39,51.4705455 C0.39,39.9454545 0.18,28.4109091 0.52,16.8858182 L0.52,16.8858182 Z" id="Shape"></path>
                </g>
                <g id="#000000ff" fill="#D1D1D1" sketch:type="MSShapeGroup">
                    <path d="M8.98,0.645342126 C32.02,0.671272948 55.06,0.610767696 78.11,0.671272948 C81.18,0.645342126 84.82,2.80624401 84.68,5.68456533 L84.74,52.3254716 C84.63,53.3540609 84.7200777,54.0036161 84.07,55.3420907 C83.4199223,56.6805653 79.83,58.1166887 77.13,57.9870346 C54.4,58.0043218 31.65,58.0043218 8.92,57.9870346 C6.27,58.0129654 3.86,56.8201476 2.07,55.2210802 C1.76,54.3480758 1.48,53.4837151 1.18,52.6107107 C0.42,50.7350479 0.84,6.48842083 1.15,5.39932628 C1.86,2.38270724 5.49,0.342815862 8.98,0.645342126 Z M7.37,6.2291126 C7.46,8.26900398 6.94,10.5509164 8.51,12.2623507 L8.39,13.048919 C10.15,14.6393427 11.29,16.6965213 13.36,18.0362805 C20.04,22.6173925 26.78,27.120712 33.41,31.7450421 C36.33,33.8195079 39.21,36.2483616 43.04,36.965781 C46.37,36.3607285 49.02,34.3813424 51.57,32.5575412 C58.68,27.5010308 66.01,22.6778978 73.18,17.6818926 C74.9,15.9791019 76.77,14.2935984 77.8,12.1845582 C79.13,10.4126187 78.57,8.19985512 78.64,6.21182539 C54.88,6.09081488 31.12,6.05624045 7.37,6.2291126 L7.37,6.2291126 Z M7.52,20.7071552 C7.18,31.2437128 7.39,41.788914 7.39,52.3254716 C12.9,52.6971468 18.43,52.4378385 23.95,52.515631 C42.17,52.4032641 60.4,52.7317212 78.61,52.3427589 C78.72,41.8062013 78.91,31.2523564 78.5,20.7244425 C76.53,22.7038286 74.11,24.2683216 71.7,25.8068837 C65.7,29.8434484 59.78,33.9578056 53.93,38.1585989 C50.83,40.3972932 47.07,42.1605892 42.98,42.428541 C36.54,42.0136478 31.84,37.8560726 27.09,34.5628581 C20.72,29.7829432 13.56,25.8068837 7.52,20.7071552 L7.52,20.7071552 Z" id="Shape"></path>
                </g>
            </g>
        </g>
    </g>
</svg>