<?xml version="1.0" encoding="UTF-8" standalone="no"?>
<svg width="28px" height="28px" viewBox="0 0 28 28" version="1.1" xmlns="http://www.w3.org/2000/svg" xmlns:xlink="http://www.w3.org/1999/xlink" xmlns:sketch="http://www.bohemiancoding.com/sketch/ns">
    <!-- Generator: Sketch 3.2.2 (9983) - http://www.bohemiancoding.com/sketch -->
    <title>web-icon</title>
    <desc>Created with Sketch.</desc>
    <defs></defs>
    <g id="assets" stroke="none" stroke-width="1" fill="none" fill-rule="evenodd" sketch:type="MSPage">
        <g id="icons-black" sketch:type="MSArtboardGroup" transform="translate(-36.000000, -47.000000)" fill="#B8E986">
            <g id="web-icon" sketch:type="MSLayerGroup" transform="translate(36.000000, 47.000000)">
                <path d="M28,14 C28,6.2680135 21.7319865,0 14,0 C6.2680135,0 0,6.2680135 0,14 C0,21.7319865 6.2680135,28 14,28 C21.7319865,28 28,21.7319865 28,14 L28,14 L28,14 Z M2,14 C2,7.372583 7.372583,2 14,2 C20.627417,2 26,7.372583 26,14 C26,20.627417 20.627417,26 14,26 C7.372583,26 2,20.627417 2,14 L2,14 L2,14 Z" id="Oval-51" sketch:type="MSShapeGroup"></path>
                <path d="M14.5,14.5 L14.5,28 L13.5,28 L13.5,14.5 L0.5,14.5 L0.5,13.5 L13.5,13.5 L13.5,1 L14.5,1 L14.5,13.5 L27.5,13.5 L27.5,14.5 L14.5,14.5 L14.5,14.5 Z" id="Path-172" sketch:type="MSShapeGroup"></path>
                <path d="M13.9999997,26.3415576 C13.7907577,26.1553189 13.5591785,25.9381983 13.3105697,25.691431 C12.5474991,24.9340128 11.7837474,24.0582441 11.0713166,23.0766727 C6.27800239,16.4725509 6.21001005,9.16592767 13.9999998,1.68841266 C21.7899896,9.16592765 21.7219972,16.4725508 16.928683,23.0766727 C16.2162521,24.0582441 15.4525004,24.9340128 14.6894298,25.691431 C14.440821,25.9381983 14.2092418,26.1553189 13.9999997,26.3415576 L13.9999997,26.3415576 L13.9999997,26.3415576 Z M13.9999998,1 L13.6588407,0.634472368 C5.12430146,8.60004242 5.12430143,16.5854384 10.2620164,23.664068 C11.0079188,24.6917559 11.8066671,25.6076539 12.6060964,26.4011616 C12.8866458,26.6796328 13.1476761,26.923261 13.3826912,27.1306712 C13.5255978,27.256792 13.6294159,27.3438453 13.6876522,27.3904344 L13.9999997,27 L14.3123473,27.3904344 C14.3705836,27.3438453 14.4744017,27.256792 14.6173083,27.1306712 C14.8523234,26.923261 15.1133536,26.6796328 15.393903,26.4011616 C16.1933325,25.6076538 16.9920807,24.6917559 17.7379832,23.664068 C22.8756982,16.5854384 22.8756982,8.60004241 14.341159,0.634472368 L13.9999998,1 L13.9999998,1 L13.9999998,1 Z" id="Path-174" sketch:type="MSShapeGroup"></path>
                <path d="M5.89613677,24.0120799 C6.39821559,23.7108326 6.98238471,23.4086761 7.64140409,23.1262392 C12.1703085,21.1852802 17.336975,21.1852802 22.7427521,24.4287466 L23.2572479,23.5712536 C17.5519139,20.1480532 12.0519138,20.1480532 7.24748479,22.2070942 C6.54539306,22.5079907 5.92122885,22.8308342 5.38164101,23.1545869 C5.05388119,23.3512428 4.82443081,23.506677 4.7,23.6000001 L5.3,24.4000001 C5.39779141,24.3266565 5.59889659,24.190424 5.89613677,24.0120799 L5.89613677,24.0120799 L5.89613677,24.0120799 Z M5.38164101,5.17874651 C5.92122885,5.50249922 6.54539306,5.82534279 7.24748479,6.12623925 C12.0519138,8.18528029 17.5519139,8.18528029 23.2572479,4.76207981 L22.7427521,3.9045869 C17.336975,7.14805328 12.1703085,7.14805328 7.64140409,5.20709422 C6.98238471,4.92465734 6.39821559,4.62250089 5.89613677,4.32125359 C5.59889659,4.14290948 5.39779141,4.00667693 5.3,3.93333338 L4.7,4.73333337 C4.82443081,4.82665649 5.05388119,4.98209062 5.38164101,5.17874651 L5.38164101,5.17874651 L5.38164101,5.17874651 Z" id="Path-176" sketch:type="MSShapeGroup"></path>
            </g>
        </g>
    </g>
</svg>