<?xml version="1.0" encoding="UTF-8" standalone="no"?>
<svg width="68px" height="64px" viewBox="0 0 68 64" version="1.1" xmlns="http://www.w3.org/2000/svg" xmlns:xlink="http://www.w3.org/1999/xlink" xmlns:sketch="http://www.bohemiancoding.com/sketch/ns">
    <!-- Generator: Sketch 3.2.2 (9983) - http://www.bohemiancoding.com/sketch -->
    <title>logo</title>
    <desc>Created with Sketch.</desc>
    <defs>
        <filter x="-50%" y="-50%" width="200%" height="200%" filterUnits="objectBoundingBox" id="filter-1">
            <feOffset dx="2" dy="2" in="SourceAlpha" result="shadowOffsetOuter1"></feOffset>
            <feGaussianBlur stdDeviation="0" in="shadowOffsetOuter1" result="shadowBlurOuter1"></feGaussianBlur>
            <feColorMatrix values="0 0 0 0 0   0 0 0 0 0   0 0 0 0 0  0 0 0 0.35 0" in="shadowBlurOuter1" type="matrix" result="shadowMatrixOuter1"></feColorMatrix>
            <feMerge>
                <feMergeNode in="shadowMatrixOuter1"></feMergeNode>
                <feMergeNode in="SourceGraphic"></feMergeNode>
            </feMerge>
        </filter>
    </defs>
    <g id="smartstudio" stroke="none" stroke-width="1" fill="none" fill-rule="evenodd" sketch:type="MSPage">
        <g id="logo" sketch:type="MSArtboardGroup" filter="url(#filter-1)" fill="#4990E2">
            <path d="M29.6135168,1.49295489 C40.2678195,3.93273192 50.9243627,5.81811745 61.5797856,8.25274727 C62.2731947,8.36984627 62.957642,8.78162299 63.32283,9.48936421 C63.7339465,10.1880978 63.714903,11.0927198 63.5009431,11.8712351 C62.2209606,16.5242979 55.4693313,46.3224641 50.6467389,55.7033683 C48.9586514,58.9870351 43.8951095,65.6360904 31.6164495,60.9972636 C25.2233943,58.5819939 17.0363287,51.8865183 10.9457553,48.7261321 C9.15118132,47.9360355 7.54368217,46.5771723 6.39546849,44.8026721 C4.73195891,42.2728189 4.15953238,38.979892 4.40373783,35.8645438 C4.42950262,34.7553202 4.66810703,33.6756932 4.8226958,32.5857717 C13.1872924,36.468054 24.4385504,36.3688982 32.803147,40.2524673 C29.4273324,53.4960968 34.732184,56.3776436 36.1320098,56.9785802 C42.9305911,59.5660936 46.5001775,53.5845453 48.3142763,49.0815536 C52.0935166,39.7006494 58.3628867,13.2133906 58.3628867,13.2133906 L28.9450731,4.38430401 L18.3353699,35.2861063 C18.3353699,35.2861063 23.8377219,12.5440124 26.7379416,3.30991964 C26.9720652,2.54298551 27.4470336,1.83138388 28.1382022,1.56630262 C28.6053291,1.34239903 29.1262261,1.39901833 29.6135168,1.49295489 Z" id="Shape" sketch:type="MSShapeGroup"></path>
        </g>
    </g>
</svg>