<?xml version="1.0" encoding="UTF-8" standalone="no"?>
<svg width="68px" height="64px" viewBox="0 0 68 64" version="1.1" xmlns="http://www.w3.org/2000/svg" xmlns:xlink="http://www.w3.org/1999/xlink" xmlns:sketch="http://www.bohemiancoding.com/sketch/ns">
    <!-- Generator: Sketch 3.2.2 (9983) - http://www.bohemiancoding.com/sketch -->
    <title>logo</title>
    <desc>Created with Sketch.</desc>
    <defs>
        <linearGradient x1="50%" y1="0%" x2="50%" y2="100%" id="linearGradient-1">
            <stop stop-color="#FBDA61" offset="0%"></stop>
            <stop stop-color="#F76B1C" offset="100%"></stop>
        </linearGradient>
    </defs>
    <g id="rigibo" stroke="none" stroke-width="1" fill="none" fill-rule="evenodd" sketch:type="MSPage">
        <g id="logo" sketch:type="MSArtboardGroup" fill="url(#linearGradient-1)">
            <path d="M27.4784821,2.60402685 C26.5050323,2.60402685 25.7158954,3.39932284 25.7158954,4.3748799 L25.7158954,18.5415913 C25.7158954,19.5196065 26.5074789,20.3124444 27.4784821,20.3124444 L41.5790632,20.3124444 C42.552513,20.3124444 43.3416499,19.5171484 43.3416499,18.5415913 L43.3416499,4.3748799 C43.3416499,3.39686477 42.5500664,2.60402685 41.5790632,2.60402685 L27.4784821,2.60402685 Z M38.0539348,23.1457912 C37.080485,23.1457912 36.2913481,23.9410872 36.2913481,24.9166443 L36.2913481,39.0833557 C36.2913481,40.0613709 37.0829316,40.8542088 38.0539348,40.8542088 L52.1545159,40.8542088 C53.1279657,40.8542088 53.9171026,40.0589128 53.9171026,39.0833557 L53.9171026,24.9166443 C53.9171026,23.9386291 53.1255191,23.1457912 52.1545159,23.1457912 L38.0539348,23.1457912 L38.0539348,23.1457912 Z M27.4784821,43.6875556 C26.5050323,43.6875556 25.7158954,44.4828516 25.7158954,45.4584087 L25.7158954,59.6251201 C25.7158954,60.6031352 26.5074789,61.3959732 27.4784821,61.3959732 L41.5790632,61.3959732 C42.552513,61.3959732 43.3416499,60.6006772 43.3416499,59.6251201 L43.3416499,45.4584087 C43.3416499,44.4803935 42.5500664,43.6875556 41.5790632,43.6875556 L27.4784821,43.6875556 L27.4784821,43.6875556 Z M48.9819026,43.6875556 C48.0084528,43.6875556 47.2193159,44.4828516 47.2193159,45.4584087 L47.2193159,59.6251201 C47.2193159,60.6031352 48.0108994,61.3959732 48.9819026,61.3959732 L63.0824837,61.3959732 C64.0559335,61.3959732 64.8450704,60.6006772 64.8450704,59.6251201 L64.8450704,45.4584087 C64.8450704,44.4803935 64.0534869,43.6875556 63.0824837,43.6875556 L48.9819026,43.6875556 L48.9819026,43.6875556 Z M4.91751628,43.6875556 C3.94406652,43.6875556 3.15492958,44.4828516 3.15492958,45.4584087 L3.15492958,59.6251201 C3.15492958,60.6031352 3.94651312,61.3959732 4.91751628,61.3959732 L19.0180974,61.3959732 C19.9915472,61.3959732 20.7806841,60.6006772 20.7806841,59.6251201 L20.7806841,45.4584087 C20.7806841,44.4803935 19.9891006,43.6875556 19.0180974,43.6875556 L4.91751628,43.6875556 L4.91751628,43.6875556 Z M16.9030294,23.1457912 C15.9295796,23.1457912 15.1404427,23.9410872 15.1404427,24.9166443 L15.1404427,39.0833557 C15.1404427,40.0613709 15.9320262,40.8542088 16.9030294,40.8542088 L31.0036105,40.8542088 C31.9770602,40.8542088 32.7661972,40.0589128 32.7661972,39.0833557 L32.7661972,24.9166443 C32.7661972,23.9386291 31.9746136,23.1457912 31.0036105,23.1457912 L16.9030294,23.1457912 L16.9030294,23.1457912 Z" id="Rectangle-221" sketch:type="MSShapeGroup"></path>
        </g>
    </g>
</svg>